SplineFontDB: 3.0
FontName: OxygenSans-Bold
FullName: OxygenSans Bold
FamilyName: OxygenSans
Weight: bold
Copyright: 2013 (c) vernon adams
Version: x
ItalicAngle: 0
UnderlinePosition: 0
UnderlineWidth: 0
Ascent: 1638
Descent: 410
UFOAscent: 1936
UFODescent: -603
LayerCount: 2
Layer: 0 0 "Back"  1
Layer: 1 0 "Fore"  0
FSType: 0
OS2Version: 0
OS2_WeightWidthSlopeOnly: 0
OS2_UseTypoMetrics: 1
CreationTime: 1361663088
ModificationTime: 1361663196
PfmFamily: 33
TTFWeight: 700
TTFWidth: 5
LineGap: 0
VLineGap: 0
OS2TypoAscent: 1600
OS2TypoAOffset: 0
OS2TypoDescent: -448
OS2TypoDOffset: 0
OS2TypoLinegap: 0
OS2WinAscent: 1600
OS2WinAOffset: 0
OS2WinDescent: 448
OS2WinDOffset: 0
HheadAscent: 1600
HheadAOffset: 0
HheadDescent: -448
HheadDOffset: 0
OS2Vendor: 'newt'
MarkAttachClasses: 1
DEI: 91125
LangName: 1033 
Encoding: ISO8859-1
Compacted: 1
UnicodeInterp: none
NameList: AGL For New Fonts
DisplaySize: -48
AntiAlias: 1
FitToEm: 1
WinInfo: 0 24 8
BeginPrivate: 7
BlueFuzz 1 1
BlueScale 19 0.02773749952763319
BlueShift 1 5
BlueValues 24 [-17 11 711 729 928 962]
OtherBlues 11 [-307 -115]
StemSnapH 36 [14 111 126 129 134 139 141 153 161]
StemSnapV 29 [133 162 171 172 177 179 202]
EndPrivate
BeginChars: 648 118

StartChar: A
Encoding: 65 65 0
Width: 1349
VWidth: 0
Flags: HW
LayerCount: 2
UndoRedoHistory
Layer: 1
Undoes
EndUndoes
Redoes
EndRedoes
EndUndoRedoHistory
Fore
SplineSet
47.3999999762 0 m 1
 290.899997771 0 l 1
 431.791341106 393.800001144 l 1
 918.10048909 393.800001144 l 1
 1063.30000001 0 l 1
 1302.59999776 0 l 1
 815.099997342 1352.60000002 l 1
 536.30000037 1352.60000002 l 1
 47.3999999762 0 l 1
867.37847114 551.699999869 m 1
 482.980217938 551.699999869 l 1
 677.930421907 1143.13566779 l 1
 867.37847114 551.699999869 l 1
EndSplineSet
EndChar

StartChar: B
Encoding: 66 66 1
Width: 1294
VWidth: 0
Flags: HW
LayerCount: 2
UndoRedoHistory
Layer: 1
Undoes
EndUndoes
Redoes
EndRedoes
EndUndoRedoHistory
Fore
SplineSet
173.400000691 0 m 1
 706.200000048 0 l 2
 1017.70000046 0 1196.39999974 142.500000179 1196.39999974 391.399999738 c 0
 1196.39999974 567.918065479 1094.48105632 670.260581812 949.211766864 722.409848191 c 1
 1087.12473728 787.068092592 1145.6999996 884.179364265 1145.69999963 1015.90000015 c 0
 1145.69999963 1259.99999976 968.400000095 1352.60000002 632.399999857 1352.60000002 c 2
 173.400000691 1352.60000002 l 1
 173.400000691 0 l 1
409.199998617 1179.20000148 m 1
 612.200000405 1179.20000148 l 2
 819.800001264 1179.20000148 917.900001705 1141.40000129 917.900001705 984.600000501 c 0
 917.900001705 835.299999416 825.900000989 790.299999416 662.900000513 790.299999416 c 2
 409.199998617 790.299999416 l 1
 409.199998617 1179.20000148 l 1
409.199998617 631.60000062 m 1
 640.099999726 631.60000062 l 2
 859.300001085 631.60000062 960.600001812 571.000000477 960.600001812 404.099999487 c 0
 960.600001812 243.199998736 867.800001502 177.599998474 665.000000477 177.599998474 c 2
 409.199998617 177.599998474 l 1
 409.199998617 631.60000062 l 1
EndSplineSet
EndChar

StartChar: C
Encoding: 67 67 2
Width: 1233
VWidth: 0
Flags: HW
LayerCount: 2
UndoRedoHistory
Layer: 1
Undoes
EndUndoes
Redoes
EndRedoes
EndUndoRedoHistory
Fore
SplineSet
774.100000083 -18 m 0
 911.100000799 -18 1065.50000077 18.4000003338 1151.39999962 63 c 1
 1104.69999987 238.699998438 l 1
 1021.79999971 200.799998403 904.400000334 171.399998307 800.300000012 171.399998307 c 0
 544.599997997 171.399998307 353.399998307 330.900000155 353.399998307 677.099999964 c 0
 353.399998307 1014.89999992 542.799998045 1184.00000167 789.399999857 1184.00000167 c 0
 894.100000083 1184.00000167 1006.90000015 1154.90000159 1090.70000011 1106.10000151 c 1
 1157.69999975 1263.50000006 l 1
 1058.00000012 1329.79999995 922.000000238 1370.60000002 772.899999917 1370.60000002 c 0
 411.699999034 1370.60000002 117.600000381 1133.29999882 117.600000381 681 c 0
 117.600000381 223.000000715 399.699999869 -18 774.100000083 -18 c 0
EndSplineSet
EndChar

StartChar: D
Encoding: 68 68 3
Width: 1453
VWidth: 0
Flags: HW
HStem: 0 88 1266 88
VStem: 1196 114
LayerCount: 2
UndoRedoHistory
Layer: 1
Undoes
EndUndoes
Redoes
EndRedoes
EndUndoRedoHistory
Fore
SplineSet
173.400000691 0 m 1
 603.500000298 0 l 2
 1042.60000014 0 1335.89999956 240.199999809 1335.89999956 681.799999952 c 0
 1335.89999956 1142.70000023 1021.69999999 1352.60000002 578.700000226 1352.60000002 c 2
 173.400000691 1352.60000002 l 1
 173.400000691 0 l 1
409.199998617 1179.20000148 m 1
 581.899999917 1179.20000148 l 2
 914.500000894 1179.20000148 1100.80000162 1031.40000129 1100.80000162 677.099999964 c 0
 1100.80000162 353.399998784 930.600001216 177.599998474 607.599999905 177.599998474 c 2
 409.199998617 177.599998474 l 1
 409.199998617 1179.20000148 l 1
EndSplineSet
EndChar

StartChar: E
Encoding: 69 69 4
Width: 1163
VWidth: 0
Flags: HW
LayerCount: 2
UndoRedoHistory
Layer: 1
Undoes
EndUndoes
Redoes
EndRedoes
EndUndoRedoHistory
Fore
SplineSet
173.400000691 0 m 1
 1028.4999997 0 l 1
 1043.09999961 177.599998474 l 1
 409.199998617 177.599998474 l 1
 409.199998617 619.10000056 l 1
 986.999999285 619.10000056 l 1
 986.999999285 792.499999106 l 1
 409.199998617 792.499999106 l 1
 409.199998617 1179.20000148 l 1
 1027.19999981 1179.20000148 l 1
 1036.09999973 1352.60000002 l 1
 173.400000691 1352.60000002 l 1
 173.400000691 0 l 1
EndSplineSet
EndChar

StartChar: F
Encoding: 70 70 5
Width: 1080
VWidth: 0
Flags: HW
LayerCount: 2
UndoRedoHistory
Layer: 1
Undoes
EndUndoes
Redoes
EndRedoes
EndUndoRedoHistory
Fore
SplineSet
173.400000691 0 m 1
 410.399998665 0 l 1
 410.399998665 592.100000799 l 1
 968.999998808 592.100000799 l 1
 968.999998808 763.299999297 l 1
 410.399998665 763.299999297 l 1
 410.399998665 1172.2000016 l 1
 1020.79999864 1172.2000016 l 1
 1031.89999861 1352.60000002 l 1
 173.400000691 1352.60000002 l 1
 173.400000691 0 l 1
EndSplineSet
EndChar

StartChar: G
Encoding: 71 71 6
Width: 1379
VWidth: 0
Flags: HW
LayerCount: 2
UndoRedoHistory
Layer: 1
Undoes
EndUndoes
Redoes
EndRedoes
EndUndoRedoHistory
Fore
SplineSet
765.200000286 -18 m 0
 948.80000031 -18 1096.30000025 15.1999999285 1240.10000008 75.3999997377 c 1
 1240.10000008 711.699999392 l 1
 741.600001454 711.699999392 l 1
 738.900001347 536.400000691 l 1
 1033.00000167 536.400000691 l 1
 1033.00000167 208.670000157 l 1
 978.805569443 188.341415164 903.591665225 170.699998319 784.000000596 170.699998319 c 0
 483.399998784 170.699998319 352.699998319 371.099999011 352.699998319 679.999999881 c 0
 352.699998319 986.600000381 525.699998677 1185.40000165 799.799999833 1185.40000165 c 0
 942.50000149 1185.40000165 1052.10000128 1142.6000011 1152.60000038 1091.60000145 c 1
 1208.89999992 1265.69999999 l 1
 1080.80000043 1338.4000001 952.599999905 1370.60000002 789.50000006 1370.60000002 c 0
 400.099999368 1370.60000002 116.900000393 1101.99999928 116.900000393 677.599999905 c 0
 116.900000393 265.000000358 355.599999905 -18 765.200000286 -18 c 0
EndSplineSet
EndChar

StartChar: H
Encoding: 72 72 7
Width: 1445
VWidth: 0
Flags: HW
LayerCount: 2
UndoRedoHistory
Layer: 1
Undoes
EndUndoes
Redoes
EndRedoes
EndUndoRedoHistory
Fore
SplineSet
172.200000644 0 m 1
 407.999998569 0 l 1
 407.999998569 608.100000799 l 1
 1037.70000106 608.100000799 l 1
 1037.70000106 0 l 1
 1273.49999899 0 l 1
 1273.49999899 1352.60000002 l 1
 1037.70000106 1352.60000002 l 1
 1037.70000106 782.899999201 l 1
 407.999998569 782.899999201 l 1
 407.999998569 1352.60000002 l 1
 172.200000644 1352.60000002 l 1
 172.200000644 0 l 1
EndSplineSet
EndChar

StartChar: I
Encoding: 73 73 8
Width: 795
VWidth: 0
Flags: HW
HStem: 0 80 1274 80
VStem: 104 494
LayerCount: 2
UndoRedoHistory
Layer: 1
Undoes
EndUndoes
Redoes
EndRedoes
EndUndoRedoHistory
Fore
SplineSet
115.199999809 1352.60000002 m 1
 115.199999809 1212.00000119 l 1
 281.400000215 1212.00000119 l 1
 281.400000215 140.599998832 l 1
 115.199999809 140.599998832 l 1
 115.199999809 0 l 1
 680.599998593 0 l 1
 680.599998593 140.599998832 l 1
 517.19999814 140.599998832 l 1
 517.19999814 1212.00000119 l 1
 680.599998593 1212.00000119 l 1
 680.599998593 1352.60000002 l 1
 115.199999809 1352.60000002 l 1
EndSplineSet
EndChar

StartChar: J
Encoding: 74 74 9
Width: 792
VWidth: 0
Flags: HW
LayerCount: 2
UndoRedoHistory
Layer: 1
Undoes
EndUndoes
Redoes
EndRedoes
EndUndoRedoHistory
Fore
SplineSet
176.399998188 -194.699998915 m 2
 461.699998558 -194.699998915 619.299997151 -9.79999983311 619.299997151 291.099999607 c 2
 619.299997151 1352.60000002 l 1
 383.499999225 1352.60000002 l 1
 383.499999225 276.499999344 l 2
 383.499999225 140.199998021 324.499999106 -6.20000052452 149.099998653 -6.20000052452 c 2
 16.2999997735 -6.20000052452 l 1
 16.2999997735 -194.699998915 l 1
 176.399998188 -194.699998915 l 2
EndSplineSet
EndChar

StartChar: K
Encoding: 75 75 10
Width: 1294
VWidth: 0
Flags: HW
LayerCount: 2
UndoRedoHistory
Layer: 1
Undoes
EndUndoes
Redoes
EndRedoes
EndUndoRedoHistory
Fore
SplineSet
173.400000691 0 m 1
 409.199998617 0 l 1
 409.199998617 533.510062989 l 1
 532.897477412 641.676513874 l 1
 998.800000191 0 l 1
 1271.59999788 0 l 1
 710.767026943 749.155261488 l 1
 1240.79999793 1352.60000002 l 1
 967.900000274 1352.60000002 l 1
 409.199998617 736.322658508 l 1
 409.199998617 1352.60000002 l 1
 173.400000691 1352.60000002 l 1
 173.400000691 0 l 1
EndSplineSet
EndChar

StartChar: L
Encoding: 76 76 11
Width: 1075
VWidth: 0
Flags: HW
LayerCount: 2
UndoRedoHistory
Layer: 1
Undoes
EndUndoes
Redoes
EndRedoes
EndUndoRedoHistory
Fore
SplineSet
173.400000691 0 m 1
 1016.69999927 0 l 1
 1026.49999911 177.599998474 l 1
 409.199998617 177.599998474 l 1
 409.199998617 1352.60000002 l 1
 173.400000691 1352.60000002 l 1
 173.400000691 0 l 1
EndSplineSet
EndChar

StartChar: M
Encoding: 77 77 12
Width: 1759
VWidth: 0
Flags: HW
LayerCount: 2
UndoRedoHistory
Layer: 1
Undoes
EndUndoes
Redoes
EndRedoes
EndUndoRedoHistory
Fore
SplineSet
173.400000691 0 m 1
 397.299998701 0 l 1
 404.299998581 638.800006151 l 1
 392.949039369 998.220589742 l 1
 787.900000036 175.899999201 l 1
 967.299998939 175.899999201 l 1
 1368.95120906 993.215586409 l 1
 1357.00000024 642.100006163 l 1
 1364.00000012 0 l 1
 1586.59999812 0 l 1
 1572.59999835 1352.60000002 l 1
 1328.69999975 1352.60000002 l 1
 881.200153209 432.916962547 l 1
 436.899999082 1352.60000002 l 1
 187.400000453 1352.60000002 l 1
 173.400000691 0 l 1
EndSplineSet
EndChar

StartChar: N
Encoding: 78 78 13
Width: 1493
VWidth: 0
Flags: HW
LayerCount: 2
UndoRedoHistory
Layer: 1
Undoes
EndUndoes
Redoes
EndRedoes
EndUndoRedoHistory
Fore
SplineSet
173.400000691 0 m 1
 402.299998462 0 l 1
 402.299998462 539.500005186 l 1
 384.902825523 1043.76218094 l 1
 1065.00000155 0 l 1
 1319.99999905 0 l 1
 1319.99999905 1352.60000002 l 1
 1091.10000128 1352.60000002 l 1
 1091.10000128 716.799996257 l 1
 1104.99630004 290.505609225 l 1
 419.499998271 1352.60000002 l 1
 173.400000691 1352.60000002 l 1
 173.400000691 0 l 1
EndSplineSet
EndChar

StartChar: O
Encoding: 79 79 14
Width: 1556
VWidth: 0
Flags: HW
HStem: -18 90 1282 90
VStem: 140 114 1299 114
LayerCount: 2
UndoRedoHistory
Layer: 1
Undoes
EndUndoes
Redoes
EndRedoes
EndUndoRedoHistory
Fore
SplineSet
779.699999988 -18 m 0
 1182.00000036 -18 1438.89999956 250.500000298 1438.89999956 671.699999869 c 0
 1438.89999956 1102.59999967 1176.1000002 1370.60000002 780 1370.60000002 c 0
 379.999999642 1370.60000002 117.600000381 1103.79999971 117.600000381 672.299999893 c 0
 117.600000381 247.800000191 374.999999523 -18 779.699999988 -18 c 0
779.399999976 168.599998355 m 0
 508.499998271 168.599998355 353.399998307 374.999999046 353.399998307 670.899999917 c 0
 353.399998307 975.700000942 513.099998415 1182.60000169 779.699999988 1182.60000169 c 0
 1046.60000157 1182.60000169 1203.10000163 975.100000918 1203.10000163 670.899999917 c 0
 1203.10000163 374.999999046 1050.30000168 168.599998355 779.399999976 168.599998355 c 0
EndSplineSet
EndChar

StartChar: P
Encoding: 80 80 15
Width: 1229
VWidth: 0
Flags: HW
LayerCount: 2
UndoRedoHistory
Layer: 1
Undoes
EndUndoes
Redoes
EndRedoes
EndUndoRedoHistory
Fore
SplineSet
173.400000691 0 m 1
 409.199998617 0 l 1
 409.199998617 612.700000942 l 1
 670.999999642 612.700000942 l 2
 1029.69999844 612.700000942 1159.89999837 762.600000501 1159.89999837 1003.10000044 c 0
 1159.89999837 1272.8999998 952.599998951 1352.60000002 672.499999702 1352.60000002 c 2
 173.400000691 1352.60000002 l 1
 173.400000691 0 l 1
409.199998617 1179.20000148 m 1
 671.099999607 1179.20000148 l 2
 835.69999975 1179.20000148 924.100000441 1134.00000131 924.100000441 997.800000548 c 0
 924.100000441 855.699999392 860.299999774 792.39999938 653.399999976 792.39999938 c 2
 409.199998617 792.39999938 l 1
 409.199998617 1179.20000148 l 1
EndSplineSet
EndChar

StartChar: Q
Encoding: 81 81 16
Width: 1556
VWidth: 0
Flags: HW
LayerCount: 2
UndoRedoHistory
Layer: 1
Undoes
EndUndoes
Redoes
EndRedoes
EndUndoRedoHistory
Fore
SplineSet
1167.5000003 -436.59999907 m 1
 1304.69999903 -315.400000095 l 1
 1204.49999946 -214.300000489 1098.89999908 -47.9000006318 1052.69999903 36.0999997258 c 1
 858.400000811 -8.7999997139 l 1
 937.800000906 -158.300000012 1076.10000104 -365.799999356 1167.5000003 -436.59999907 c 1
EndSplineSet
Refer: 14 79 N 1 0 0 1 0 0 2
EndChar

StartChar: R
Encoding: 82 82 17
Width: 1329
VWidth: 0
Flags: HW
HStem: 675 90 1266 88
VStem: 1049 109
LayerCount: 2
UndoRedoHistory
Layer: 1
Undoes
EndUndoes
Redoes
EndRedoes
EndUndoRedoHistory
Fore
SplineSet
173.400000691 0 m 1
 409.199998617 0 l 1
 409.199998617 600.100001276 l 1
 741.683084647 600.100001276 l 1
 834.200001121 373.300001681 l 1
 994.700001776 0 l 1
 1241.59999955 0 l 1
 1047.69999892 429.700001538 l 1
 959.26699325 633.23970824 l 1
 1093.714891 683.867885595 1189.49999946 776.900706594 1189.49999946 980.700000703 c 0
 1189.49999946 1261.3999995 1011.40000069 1352.60000002 714.100001037 1352.60000002 c 2
 173.400000691 1352.60000002 l 1
 173.400000691 0 l 1
409.199998617 1179.20000148 m 1
 722.600000858 1179.20000148 l 2
 901.600001454 1179.20000148 955.200001597 1109.10000116 955.200001597 977.600000739 c 0
 955.200001597 824.200000167 909.50000149 759.400000095 704.500000536 759.400000095 c 2
 409.199998617 759.400000095 l 1
 409.199998617 1179.20000148 l 1
EndSplineSet
EndChar

StartChar: S
Encoding: 83 83 18
Width: 1157
VWidth: 0
Flags: HW
LayerCount: 2
UndoRedoHistory
Layer: 1
Undoes
EndUndoes
Redoes
EndRedoes
EndUndoRedoHistory
Fore
SplineSet
570.899999917 -18 m 0
 845.499999344 -18 1045.59999919 104.599999428 1050.09999937 369.599999547 c 0
 1053.99999952 593.499999821 931.899998844 689.699999273 713.399999499 766.899999201 c 2
 499.699999511 843.099999368 l 2
 409.299998343 876.299999893 367.799998164 922.999999881 369.599998236 1008.40000069 c 0
 371.999998331 1138.50000161 472.999999404 1182.60000169 612.299999654 1182.60000169 c 0
 745.700000226 1182.60000169 869.400000095 1121.80000138 941.899999321 1088.10000163 c 1
 1014.89999896 1260.5999999 l 1
 912.19999969 1324.19999969 765.799999833 1370.60000002 608.199999928 1370.60000002 c 0
 358.500000656 1370.60000002 153.700000346 1259.90000087 149.500000179 1003.40000069 c 0
 146.800000072 816.700000823 254.100000203 709.000001311 420.000000358 651.200001121 c 2
 647.600000262 572.600000978 l 1
 776.100001514 526.500000417 831.100001514 473.900000393 829.000001431 371.199999452 c 0
 826.300001323 227.199998617 741.400000691 168.599998355 579.399999857 168.599998355 c 0
 431.199999213 168.599998355 286.199999928 217.899998605 204.999999762 273.599998832 c 1
 133.400000215 98.400000453 l 1
 228.699999392 39.900000751 370.599998951 -18 570.899999917 -18 c 0
EndSplineSet
EndChar

StartChar: T
Encoding: 84 84 19
Width: 1121
VWidth: 0
Flags: HW
LayerCount: 2
UndoRedoHistory
Layer: 1
Undoes
EndUndoes
Redoes
EndRedoes
EndUndoRedoHistory
Fore
SplineSet
442.200000525 0 m 1
 677.99999845 0 l 1
 677.99999845 1167.00000179 l 1
 1071.89999896 1167.00000179 l 1
 1071.89999896 1352.60000002 l 1
 49.8000000715 1352.60000002 l 1
 49.8000000715 1167.00000179 l 1
 442.200000525 1167.00000179 l 1
 442.200000525 0 l 1
EndSplineSet
EndChar

StartChar: U
Encoding: 85 85 20
Width: 1412
VWidth: 0
Flags: HW
LayerCount: 2
UndoRedoHistory
Layer: 1
Undoes
EndUndoes
Redoes
EndRedoes
EndUndoRedoHistory
Fore
SplineSet
706.19999969 -18 m 0
 1059.19999993 -18 1262.99999917 183.400000453 1262.99999917 488.500000179 c 2
 1262.99999917 1352.60000002 l 1
 1027.20000124 1352.60000002 l 1
 1027.20000124 502.899999917 l 2
 1027.20000124 283.599998951 916.100000799 170.699998319 706.19999969 170.699998319 c 0
 495.999998331 170.699998319 385.799998164 283.199998975 385.799998164 502.49999994 c 2
 385.799998164 1352.60000002 l 1
 150.000000238 1352.60000002 l 1
 150.000000238 490.100000203 l 2
 150.000000238 182.900000513 353.099999487 -18 706.19999969 -18 c 0
EndSplineSet
EndChar

StartChar: V
Encoding: 86 86 21
Width: 1331
VWidth: 0
Flags: HW
LayerCount: 2
UndoRedoHistory
Layer: 1
Undoes
EndUndoes
Redoes
EndRedoes
EndUndoRedoHistory
Fore
SplineSet
540.300000966 0 m 1
 790.599997878 0 l 1
 1266.79999876 1352.60000002 l 1
 1018.70000106 1352.60000002 l 1
 758.69999975 547.399998426 l 1
 668.827257653 260.415776764 l 1
 577.799998999 545.199998379 l 1
 314.999997735 1352.60000002 l 1
 65.2000000477 1352.60000002 l 1
 540.300000966 0 l 1
EndSplineSet
EndChar

StartChar: W
Encoding: 87 87 22
Width: 1921
VWidth: 0
Flags: HW
LayerCount: 2
UndoRedoHistory
Layer: 1
Undoes
EndUndoes
Redoes
EndRedoes
EndUndoRedoHistory
Fore
SplineSet
427.400001168 0 m 1
 649.699999273 0 l 1
 962.394135923 1032.32791973 l 1
 1258.90000159 0 l 1
 1483.4999997 0 l 1
 1879.40000021 1352.30000001 l 1
 1650.00000226 1352.30000001 l 1
 1367.32770138 303.786263398 l 1
 1069.19999945 1336.69999963 l 1
 852.800001144 1336.69999963 l 1
 545.176967691 307.194501316 l 1
 270.499998271 1352.30000001 l 1
 41.6000003815 1352.30000001 l 1
 427.400001168 0 l 1
EndSplineSet
EndChar

StartChar: X
Encoding: 88 88 23
Width: 1300
VWidth: 0
Flags: HW
LayerCount: 2
UndoRedoHistory
Layer: 1
Undoes
EndUndoes
Redoes
EndRedoes
EndUndoRedoHistory
Fore
SplineSet
984.400000811 0 m 1
 1232.79999828 0 l 1
 782.572670806 678.29971395 l 1
 1217.39999855 1352.60000002 l 1
 980.100000679 1352.60000002 l 1
 664.53286685 856.135132576 l 1
 334.999998331 1352.60000002 l 1
 90.6000007391 1352.60000002 l 1
 525.937542441 693.797629392 l 1
 73.0000013113 0 l 1
 311.699999034 0 l 1
 649.979089917 506.083826411 l 1
 984.400000811 0 l 1
EndSplineSet
EndChar

StartChar: Y
Encoding: 89 89 24
Width: 1223
VWidth: 0
Flags: HW
LayerCount: 2
UndoRedoHistory
Layer: 1
Undoes
EndUndoes
Redoes
EndRedoes
EndUndoRedoHistory
Fore
SplineSet
501.10000056 0 m 1
 732.699998558 0 l 1
 732.699998558 531.445205309 l 1
 1174.29999846 1352.60000002 l 1
 933.900000751 1352.60000002 l 1
 615.110827414 724.537748929 l 1
 292.999997854 1352.60000002 l 1
 49.4000002146 1352.60000002 l 1
 501.10000056 527.884376271 l 1
 501.10000056 0 l 1
EndSplineSet
EndChar

StartChar: Z
Encoding: 90 90 25
Width: 1177
VWidth: 0
Flags: HW
LayerCount: 2
UndoRedoHistory
Layer: 1
Undoes
EndUndoes
Redoes
EndRedoes
EndUndoRedoHistory
Fore
SplineSet
142.999999881 0 m 1
 1061.19999909 0 l 1
 1064.49999923 177.599998474 l 1
 435.879826392 177.599998474 l 1
 1056.39999926 1197.50000125 l 1
 1053.69999915 1352.60000002 l 1
 160.500000298 1352.60000002 l 1
 160.500000298 1179.20000148 l 1
 782.019349399 1179.20000148 l 1
 142.999999881 148.299999058 l 1
 142.999999881 0 l 1
EndSplineSet
EndChar

StartChar: a
Encoding: 97 97 26
Width: 1060
VWidth: 0
Flags: HW
HStem: -14 86 500 77 919 86
VStem: 118 112 787 30 818 80
LayerCount: 2
UndoRedoHistory
Layer: 1
Undoes
EndUndoes
Redoes
EndRedoes
EndUndoRedoHistory
Fore
SplineSet
454.199999332 137.099998891 m 0
 368.399999261 137.099998891 301.399998784 185.499998987 301.399998784 280.099999607 c 0
 301.399998784 408.50000006 378.699998558 462.200000644 596.000000358 473.400000453 c 2
 712.100001276 479.608125355 l 1
 712.100001276 259.132382272 l 1
 653.254453186 193.448928287 552.475027971 137.099998891 454.199999332 137.099998891 c 0
712.800001264 619.683794105 m 1
 529.500001132 609.199999452 l 1
 250.400000095 594.499999702 102.600000262 498.599999428 102.600000262 279.099999607 c 0
 102.600000262 81.6999999881 240.800000072 -16.7999999523 418.000000119 -16.7999999523 c 0
 537.866805172 -16.7999999523 659.509831515 30.1540109026 742.209345098 122.772575805 c 1
 767.600000858 0.300000011921 l 1
 924.599999547 0.300000011921 l 1
 924.599999547 658.799999952 l 2
 924.599999547 929.199999809 757.399999738 1029.49999958 526.699999869 1029.49999958 c 0
 408.799999952 1029.49999958 266.199999928 999.499999464 146.300000608 946.799999595 c 1
 193.800000429 802.800000668 l 1
 294.000000238 843.400000811 412.800000429 871.400000811 506.800000548 871.400000811 c 0
 635.800001264 871.400000811 712.800001264 814.700000226 712.800001264 685.099999845 c 2
 712.800001264 619.683794105 l 1
EndSplineSet
EndChar

StartChar: acute
Encoding: 180 180 27
Width: 562
VWidth: 0
Flags: HW
LayerCount: 2
UndoRedoHistory
Layer: 1
Undoes
EndUndoes
Redoes
EndRedoes
EndUndoRedoHistory
Fore
SplineSet
138.399999022 1109.50000113 m 1
 267.499997914 1109.50000113 l 1
 556.799997687 1466.30000097 l 1
 303.499999225 1466.30000097 l 1
 138.399999022 1109.50000113 l 1
EndSplineSet
EndChar

StartChar: ampersand
Encoding: 38 38 28
Width: 1345
VWidth: 0
Flags: HW
HStem: -18 90 1282 90
VStem: 126 113 292 98 857 103
LayerCount: 2
UndoRedoHistory
Layer: 1
Undoes
EndUndoes
Redoes
EndRedoes
EndUndoRedoHistory
Fore
SplineSet
568.699999511 841.999999166 m 1
 675.200000286 896.599999428 784.900001228 967.399999976 784.900001228 1074.80000031 c 0
 784.900001228 1169.90000075 719.90000087 1216.90000111 624.300000131 1216.90000111 c 0
 526.599999547 1216.90000111 455.099998891 1165.90000063 455.099998891 1068.80000031 c 0
 455.099998891 985.50000006 499.699999034 910.799999475 568.699999511 841.999999166 c 1
595.900000155 146.199998736 m 0
 709.200000882 146.199998736 809.600001097 177.899998724 890.000001431 240.799998999 c 1
 855.700002015 278.599998355 551.299999297 610.100001276 518.399999857 646.500000656 c 1
 398.59999907 583.600000381 309.699998796 510.499999702 309.699998796 383.39999938 c 0
 309.699998796 227.499999225 423.899998963 146.199998736 595.900000155 146.199998736 c 0
589.100000083 -6.10000020266 m 0
 320.59999907 -6.10000020266 118.300000131 117.900000274 118.300000131 373.999999404 c 0
 118.300000131 570.599999428 252.099999845 678.099999607 420.400000453 765.999999762 c 1
 338.599999905 857.000000238 275.200000286 943.500000298 275.200000286 1061.00000036 c 0
 275.200000286 1257.59999979 426.69999975 1362.90000015 619.400000215 1362.90000015 c 0
 796.700000584 1362.90000015 969.099999845 1271.39999986 969.099999845 1073.70000023 c 0
 969.099999845 908.800000429 824.799999595 800.100000203 668.799998879 725.300000012 c 1
 1004.0000006 355.899998128 l 1
 1051.7000007 408.899998128 1108.50000101 501.199998736 1142.200001 570.299998939 c 1
 1284.79999995 477.499999583 l 1
 1246.90000004 398.199999571 1181.4999997 297.399999022 1120.69999963 231.699999034 c 1
 1296.79999912 47.0999996066 l 1
 1123.00000048 -2.90000027418 l 1
 1001.70000058 125.899999678 l 1
 885.200000525 39.3999996185 754.000000834 -6.10000020266 589.100000083 -6.10000020266 c 0
EndSplineSet
EndChar

StartChar: asciicircum
Encoding: 94 94 29
Width: 1129
VWidth: 0
Flags: HW
LayerCount: 2
UndoRedoHistory
Layer: 1
Undoes
EndUndoes
Redoes
EndRedoes
EndUndoRedoHistory
Fore
SplineSet
84.7000015378 513.500000894 m 1
 496.20000124 1363.50000066 l 1
 604.400000572 1363.50000066 l 1
 1040.40000021 513.500000894 l 1
 873.100001872 513.500000894 l 1
 551.200000882 1144.60000277 l 1
 253.199999928 513.500000894 l 1
 84.7000015378 513.500000894 l 1
EndSplineSet
EndChar

StartChar: asciitilde
Encoding: 126 126 30
Width: 1135
VWidth: 0
Flags: HW
LayerCount: 2
UndoRedoHistory
Layer: 1
Undoes
EndUndoes
Redoes
EndRedoes
EndUndoRedoHistory
Fore
SplineSet
170.199998975 445.300000489 m 1
 105.69999975 561.999999642 l 1
 150.599999666 660.399999738 230.099999726 741.599999666 360.299999416 741.599999666 c 0
 436.799999356 741.599999666 506.099998891 717.999999762 589.599999189 681.399999619 c 0
 672.799999356 645.199999571 737.999999642 617.599999309 790.69999975 617.599999309 c 0
 861.899999917 617.599999309 928.600000143 666.399999857 986.399999499 747.599999785 c 1
 1050.29999894 636.800000668 l 1
 1003.19999897 536.600000262 906.599999666 456.500000536 781.799999952 456.500000536 c 0
 704.400000334 456.500000536 638.900000274 482.900000513 557.500000417 519.400000453 c 0
 478.399999857 555.800000668 418.999999523 582.000000834 354.399999499 582.000000834 c 0
 274.299999416 582.000000834 209.499999106 518.300000727 170.199998975 445.300000489 c 1
EndSplineSet
EndChar

StartChar: asterisk
Encoding: 42 42 31
Width: 1102
VWidth: 0
Flags: HW
LayerCount: 2
UndoRedoHistory
Layer: 1
Undoes
EndUndoes
Redoes
EndRedoes
EndUndoRedoHistory
Fore
SplineSet
596.199995875 483.600001097 m 1
 704.299992383 582.700000584 l 1
 704.299992383 582.700000584 652.29999727 834.500001848 625.699997723 868.100001276 c 1
 736.199989915 940.000001431 l 1
 702.799991012 1124.20000029 l 1
 594.899998724 993.600000024 l 1
 604.699997962 1352.20000064 l 1
 489.000002146 1352.20000064 l 1
 499.900001347 993.600000024 l 1
 394.400009036 1124.20000029 l 1
 359.500010192 940.000001431 l 1
 467.200002313 868.100001276 l 1
 478.300002754 852.500000656 351.700006187 632.800002575 391.000007749 582.700000584 c 1
 370.014462105 569.584034557 488.945470855 516.404532144 503.107607178 493.224421517 c 1
 544.699999988 790.800001979 l 1
 596.199995875 483.600001097 l 1
503.107607178 493.224421517 m 1
 505.141918211 489.89472932 505.014459482 487.184035654 502.000004172 485.300001085 c 1
 503.107607178 493.224421517 l 1
EndSplineSet
EndChar

StartChar: at
Encoding: 64 64 32
Width: 1803
VWidth: 0
Flags: HW
LayerCount: 2
UndoRedoHistory
Layer: 1
Undoes
EndUndoes
Redoes
EndRedoes
EndUndoRedoHistory
Fore
SplineSet
839.400001049 334.499998987 m 0
 739.000000834 334.499998987 687.300000489 415.399998784 687.300000489 543.299999774 c 0
 687.300000489 726.000000119 793.100000679 901.400000453 966.900000989 901.400000453 c 0
 999.816263806 901.400000453 1051.20171771 893.423698636 1092.89257141 884.463292392 c 1
 1079.49705541 804.058061481 1056.43125643 669.951597746 1054.70000154 657.399999738 c 0
 1025.50000161 476.099999487 979.900001228 334.499998987 839.400001049 334.499998987 c 0
883.500001132 -148.100001156 m 0
 1060.20000136 -148.100001156 1240.00000119 -107.300001085 1358.90000135 -27.6000009775 c 1
 1318.70000142 80.7999985218 l 1
 1195.80000126 10.3999984264 1036.60000134 -26.700001657 884.500001132 -26.700001657 c 0
 505.600000978 -26.700001657 295.799999833 242.199997783 295.799999833 580.69999963 c 0
 295.799999833 932.000001192 535.500001132 1249.60000098 939.400001287 1249.60000098 c 0
 1337.1000008 1249.60000098 1522.20000243 992.400001287 1522.20000243 715.899999797 c 0
 1522.20000243 466.200000048 1419.20000267 341.599998951 1299.00000131 341.599998951 c 0
 1230.90000087 341.599998951 1189.6000011 393.799999356 1189.6000011 469.399999738 c 0
 1189.6000011 582.999999881 1224.50000113 753.000000119 1250.40000117 938.700000346 c 1
 1171.00000107 978.900000155 1041.20000148 1004.50000018 952.200001359 1004.50000018 c 0
 689.000001192 1004.50000018 541.900001109 772.600000381 541.900001109 546.19999969 c 0
 541.900001109 366.299999058 636.000001311 225.999999285 823.600001097 225.999999285 c 0
 947.447884326 225.999999285 1035.70976173 316.265394963 1082.27255454 411.6172617 c 1
 1113.49895745 294.565872176 1196.75651736 229.499999548 1299.50000137 229.499999464 c 0
 1470.400002 229.499999464 1657.40000188 390.69999963 1657.40000188 708.199999809 c 0
 1657.40000188 1114.10000032 1347.50000173 1371.20000052 945.600001216 1371.20000052 c 0
 481.60000062 1371.20000052 146.700000584 1037.00000012 146.700000584 584.599999547 c 0
 146.700000584 131.199998975 448.400000572 -148.100001156 883.500001132 -148.100001156 c 0
EndSplineSet
EndChar

StartChar: b
Encoding: 98 98 33
Width: 1163
VWidth: 0
Flags: HW
HStem: -18 86 918 86
VStem: 180 117 180 88 951 114
LayerCount: 2
UndoRedoHistory
Layer: 1
Undoes
EndUndoes
Redoes
EndRedoes
EndUndoRedoHistory
Fore
SplineSet
606.300000489 145.699998677 m 0
 453.399999499 145.699998677 353.499998987 260.799999356 353.499998987 520.69999975 c 1
 354.599998951 751.599999785 449.699999034 866.90000087 612.200000525 866.90000087 c 0
 770.200001836 866.90000087 855.100001633 742.899999678 855.100001633 507.599999666 c 0
 855.100001633 268.699999511 763.100001752 145.699998677 606.300000489 145.699998677 c 0
648.899999678 -18 m 0
 912.100000083 -18 1068.49999994 195.399999738 1068.49999994 509.099999607 c 0
 1068.49999994 813.299999774 922.700000107 1029.89999956 654.099999726 1029.89999956 c 0
 524.901877147 1029.89999956 420.767441568 965.357383203 354.767101539 883.1899837 c 1
 357.899998963 1050.79999888 l 1
 357.899998963 1375.20000029 l 1
 143.60000062 1361.00000036 l 1
 143.60000062 0.699999988079 l 1
 324.699999034 0.699999988079 l 1
 341.271359402 139.510303738 l 1
 405.218050376 55.8669326355 515.086087858 -18 648.899999678 -18 c 0
EndSplineSet
EndChar

StartChar: backslash
Encoding: 92 92 34
Width: 859
VWidth: 0
Flags: HW
LayerCount: 2
UndoRedoHistory
Layer: 1
Undoes
EndUndoes
Redoes
EndRedoes
EndUndoRedoHistory
Fore
SplineSet
577.400001526 -16.8000006676 m 1
 106.700000346 1341.40000021 l 1
 291.799998522 1341.40000021 l 1
 759.299999774 -16.8000006676 l 1
 577.400001526 -16.8000006676 l 1
EndSplineSet
EndChar

StartChar: bar
Encoding: 124 124 35
Width: 486
VWidth: 0
Flags: HW
LayerCount: 2
UndoRedoHistory
Layer: 1
Undoes
EndUndoes
Redoes
EndRedoes
EndUndoRedoHistory
Fore
SplineSet
166.799998164 -293.50000149 m 1
 166.799998164 1456.30000001 l 1
 331.499996722 1456.30000001 l 1
 331.499996722 -293.50000149 l 1
 166.799998164 -293.50000149 l 1
EndSplineSet
EndChar

StartChar: braceleft
Encoding: 123 123 36
Width: 709
VWidth: 0
Flags: HW
LayerCount: 2
UndoRedoHistory
Layer: 1
Undoes
EndUndoes
Redoes
EndRedoes
EndUndoRedoHistory
Fore
SplineSet
616.199999452 -250.400000215 m 1
 374.800000072 -250.400000215 262.800000906 -169.199999332 262.800000906 42.6000005007 c 2
 262.800000906 258.999999285 l 2
 262.800000906 405.499999702 234.000001192 479.300000846 69.4000008106 480.200000882 c 1
 69.4000008106 652.699999273 l 1
 237.100001037 653.399999261 262.800000906 724.800000548 262.800000906 871.500000894 c 2
 262.800000906 1114.70000011 l 2
 262.800000906 1315.09999961 385.700000346 1391.10000032 616.199999452 1391.40000033 c 1
 616.199999452 1228.00000179 l 1
 487.199999332 1226.00000179 457.999998927 1184.80000138 457.999998927 1051.70000058 c 2
 457.999998927 810.400000572 l 1
 456.599998951 692.800000668 411.899999201 633.400000811 290.699998915 564.600000024 c 1
 403.899999201 532.099999964 458.299998939 443.299999297 457.999998927 328.599999547 c 2
 457.999998927 86.1999995708 l 2
 457.999998927 -44.8000011444 485.599999309 -87.3000016809 616.199999452 -89.3000016809 c 1
 616.199999452 -250.400000215 l 1
EndSplineSet
EndChar

StartChar: braceright
Encoding: 125 125 37
Width: 709
VWidth: 0
Flags: HW
LayerCount: 2
UndoRedoHistory
Layer: 1
Undoes
EndUndoes
Redoes
EndRedoes
EndUndoRedoHistory
Fore
SplineSet
91.1000004411 -250.400000215 m 1
 91.1000004411 -88.4000016451 l 1
 220.10000056 -86.4000016451 248.600000978 -47.300001204 248.600000978 86.4999995828 c 2
 248.600000978 329.199999571 l 2
 248.600000978 448.199999452 298.200000644 507.599999309 416.600000978 569.400000215 c 1
 299.900000751 608.900000155 249.700000942 696.300000846 248.600000978 811.000000596 c 1
 248.600000978 1052.0000006 l 2
 248.600000978 1183.7000013 221.700000584 1226.90000182 91.1000004411 1228.90000182 c 1
 91.1000004411 1391.40000033 l 1
 331.799999833 1391.40000033 443.799998999 1311.59999943 443.799998999 1095.59999967 c 2
 443.799998999 872.900000989 l 2
 443.799998999 726.400000572 469.099998772 656.099999368 637.899999082 654.499999344 c 1
 637.899999082 482.000000954 l 1
 475.099998772 482.000000954 443.799998999 408.499999702 443.799998999 261.099999368 c 2
 443.799998999 23.5000000596 l 2
 443.799998999 -175.499999464 325.799999475 -250.100000203 91.1000004411 -250.400000215 c 1
EndSplineSet
EndChar

StartChar: bracketleft
Encoding: 91 91 38
Width: 708
VWidth: 0
Flags: HW
LayerCount: 2
UndoRedoHistory
Layer: 1
Undoes
EndUndoes
Redoes
EndRedoes
EndUndoRedoHistory
Fore
SplineSet
170.699998915 -161.700002134 m 1
 170.699998915 1409.99999905 l 1
 592.799998522 1409.99999905 l 1
 592.799998522 1259.40000021 l 1
 370.099997103 1259.40000021 l 1
 370.099997103 -11.0000033379 l 1
 592.799998522 -11.0000033379 l 1
 592.799998522 -161.700002134 l 1
 170.699998915 -161.700002134 l 1
EndSplineSet
EndChar

StartChar: bracketright
Encoding: 93 93 39
Width: 709
VWidth: 0
Flags: HW
LayerCount: 2
UndoRedoHistory
Layer: 1
Undoes
EndUndoes
Redoes
EndRedoes
EndUndoRedoHistory
Fore
SplineSet
116.999999642 -161.700002134 m 1
 116.999999642 -11.7000033259 l 1
 339.700001061 -11.7000033259 l 1
 339.700001061 1258.70000023 l 1
 116.999999642 1258.70000023 l 1
 116.999999642 1409.99999905 l 1
 538.799999237 1409.99999905 l 1
 538.799999237 -161.700002134 l 1
 116.999999642 -161.700002134 l 1
EndSplineSet
EndChar

StartChar: brokenbar
Encoding: 166 166 40
Width: 550
VWidth: 0
Flags: HW
LayerCount: 2
UndoRedoHistory
Layer: 1
Undoes
EndUndoes
Redoes
EndRedoes
EndUndoRedoHistory
Fore
SplineSet
196.699997246 766.300001085 m 1
 196.699997246 1421.30000061 l 1
 361.699995816 1421.30000061 l 1
 361.699995816 766.300001085 l 1
 196.699997246 766.300001085 l 1
196.699997246 -349.900000513 m 1
 196.699997246 306.699999034 l 1
 361.699995816 306.699999034 l 1
 361.699995816 -349.900000513 l 1
 196.699997246 -349.900000513 l 1
EndSplineSet
EndChar

StartChar: c
Encoding: 99 99 41
Width: 942
VWidth: 0
Flags: HW
HStem: -18 86 918 86
VStem: 120 112
LayerCount: 2
UndoRedoHistory
Layer: 1
Undoes
EndUndoes
Redoes
EndRedoes
EndUndoRedoHistory
Fore
SplineSet
578.300000012 -18 m 0
 741.09999913 -18 826.499999464 33.1999996901 859.999999523 58.5999997854 c 1
 828.499999583 208.299998462 l 1
 766.199999928 173.099998653 688.599999785 144.999998689 601.299999893 148.499998629 c 1
 423.899998605 153.399998546 307.599998713 283.899999678 307.599998713 503.999999642 c 0
 307.599998713 734.099999964 434.299998701 863.40000093 610.399999976 863.40000093 c 0
 691.199998856 863.40000093 764.099998891 835.600001454 813.599999666 807.400001049 c 1
 866.999999404 953.899999797 l 1
 792.799999714 1002.99999952 698.899999797 1029.89999956 584.300000131 1029.89999956 c 0
 305.50000006 1029.89999956 94.8000004292 834.399999142 94.8000004292 506.099999607 c 0
 94.8000004292 180.200000405 287.500000179 -18 578.300000012 -18 c 0
EndSplineSet
EndChar

StartChar: cedilla
Encoding: 184 184 42
Width: 528
VWidth: 0
Flags: HW
LayerCount: 2
UndoRedoHistory
Layer: 1
Undoes
EndUndoes
Redoes
EndRedoes
EndUndoRedoHistory
Fore
SplineSet
76.6000012159 -334.800001502 m 1
 249.299999774 -334.800001502 l 1
 295.799999475 37.4999991059 l 1
 185.100000918 37.4999991059 l 1
 76.6000012159 -334.800001502 l 1
EndSplineSet
EndChar

StartChar: cent
Encoding: 162 162 43
Width: 937
VWidth: 0
Flags: HW
LayerCount: 2
UndoRedoHistory
Layer: 1
Undoes
EndUndoes
Redoes
EndRedoes
EndUndoRedoHistory
Fore
SplineSet
563.999999642 -146 m 1
 644.999999523 -146 l 1
 644.999999523 1156 l 1
 563.999999642 1156 l 1
 563.999999642 -146 l 1
EndSplineSet
Refer: 41 99 N 1 0 0 1 0 0 2
EndChar

StartChar: colon
Encoding: 58 58 44
Width: 584
VWidth: 0
Flags: HW
LayerCount: 2
UndoRedoHistory
Layer: 1
Undoes
EndUndoes
Redoes
EndRedoes
EndUndoRedoHistory
Fore
SplineSet
180.799999595 785.600000978 m 1
 400.499998152 785.600000978 l 1
 400.499998152 1018.10000008 l 1
 180.799999595 1018.10000008 l 1
 180.799999595 785.600000978 l 1
180.799999595 -10.2000004053 m 1
 400.499998152 -10.2000004053 l 1
 400.499998152 228.799998522 l 1
 180.799999595 228.799998522 l 1
 180.799999595 -10.2000004053 l 1
EndSplineSet
EndChar

StartChar: comma
Encoding: 44 44 45
Width: 498
VWidth: 0
Flags: HW
LayerCount: 2
UndoRedoHistory
Layer: 1
Undoes
EndUndoes
Redoes
EndRedoes
EndUndoRedoHistory
Fore
SplineSet
134.50000006 -242.900000393 m 1
 268.899998367 -242.900000393 l 1
 293.799999356 -175.699997723 388.799997449 117.999997139 405.599998116 181.599999666 c 1
 408.199998021 229.099999368 l 1
 201.199999213 229.099999368 l 1
 197.299999058 164.899996817 142.600000381 -175.399997711 134.50000006 -242.900000393 c 1
EndSplineSet
EndChar

StartChar: copyright
Encoding: 169 169 46
Width: 1605
VWidth: 0
Flags: HW
LayerCount: 2
UndoRedoHistory
Layer: 1
Undoes
EndUndoes
Redoes
EndRedoes
EndUndoRedoHistory
Fore
SplineSet
805.500001371 -11.1000004411 m 0
 1179.10000116 -11.1000004411 1520.60000193 258.599998951 1520.60000193 693.700000226 c 0
 1520.60000193 1128.10000151 1177.70000118 1399.50000089 804.800001383 1399.50000089 c 0
 434.00000155 1399.50000089 93.0000008345 1128.8000015 93.0000008345 693.700000226 c 0
 93.0000008345 258.599998951 434.700001538 -11.1000004411 805.500001371 -11.1000004411 c 0
805.500001371 85.7999991179 m 0
 478.00000155 85.7999991179 206.700000465 330.099998534 206.700000465 693.700000226 c 0
 206.700000465 1055.90000194 478.00000155 1301.60000134 804.800001383 1301.60000134 c 0
 1135.10000116 1301.60000134 1407.60000229 1055.60000193 1407.60000229 693.000000238 c 0
 1407.60000229 330.399998546 1135.80000114 85.7999991179 805.500001371 85.7999991179 c 0
806.700001895 229.399999738 m 0
 910.000001669 229.399999738 1004.10000163 256.099999726 1080.90000182 305.799999833 c 1
 1038.8000021 403.099999368 l 1
 967.700001776 359.999999166 885.700001895 340.899999201 815.500001729 340.899999201 c 0
 634.200001359 340.899999201 506.900000632 475.899999559 506.900000632 689.200000405 c 0
 506.900000632 895.600000858 633.500001371 1036.00000131 810.700001657 1036.00000131 c 0
 878.200001717 1036.00000131 964.400001884 1015.20000124 1031.10000199 970.600000978 c 1
 1079.00000179 1068.70000058 l 1
 1000.2000016 1122.60000074 906.600001574 1148.50000077 802.700001776 1148.50000077 c 0
 555.400001764 1148.50000077 371.400001168 946.700000703 371.400001168 687.100000322 c 0
 371.400001168 420.799999952 562.80000174 229.399999738 806.700001895 229.399999738 c 0
EndSplineSet
EndChar

StartChar: currency
Encoding: 164 164 47
Width: 1102
VWidth: 0
Flags: HW
LayerCount: 2
UndoRedoHistory
Layer: 1
Undoes
EndUndoes
Redoes
EndRedoes
EndUndoRedoHistory
Fore
SplineSet
556.800001502 409.699999034 m 0
 413.300000966 409.699999034 296.800000548 525.699999392 296.800000548 670.499999821 c 0
 296.800000548 814.600000262 413.300000966 932.300000608 556.800001502 932.300000608 c 0
 701.000002027 932.300000608 817.90000242 815.000000238 817.90000242 670.499999821 c 0
 817.90000242 525.999999404 702.000002027 409.699999034 556.800001502 409.699999034 c 0
954.900001943 210.600000024 m 1
 1032.00000131 292.999999404 l 1
 867.500001252 451.699999511 l 1
 912.100001395 515.999999523 936.800001502 588.599999666 936.800001502 670.499999821 c 0
 936.800001502 749.999999881 910.300001442 825.399999976 866.500001252 890.000000119 c 1
 1033.00000131 1049.50000018 l 1
 954.900001943 1131.49999958 l 1
 786.400001884 972.999999523 l 1
 721.200001836 1024.99999964 644.400001645 1053.09999973 556.800001502 1053.09999973 c 0
 470.600001335 1053.09999973 389.600001216 1024.4999997 325.900001109 974.699999511 c 1
 161.200001001 1131.49999958 l 1
 78.4000016451 1051.1000002 l 1
 246.80000174 890.000000119 l 1
 201.900001585 824.400000095 176.200001478 750.49999994 176.200001478 670.499999821 c 0
 176.200001478 589.499999702 203.00000155 515.099999607 246.80000174 451.699999511 c 1
 79.4000016451 292.199999452 l 1
 161.200001001 211.600000024 l 1
 324.800001144 368.000000119 l 1
 389.600001216 316.399999976 468.200001359 288.899999917 556.800001502 288.899999917 c 0
 644.000001669 288.899999917 722.3000018 318.49999994 786.400001884 368.400000095 c 1
 954.900001943 210.600000024 l 1
EndSplineSet
EndChar

StartChar: d
Encoding: 100 100 48
Width: 1160
VWidth: 0
Flags: HW
LayerCount: 2
UndoRedoHistory
Layer: 1
Undoes
EndUndoes
Redoes
EndRedoes
EndUndoRedoHistory
Fore
SplineSet
556.799999833 145.699998677 m 0
 391.999998689 145.699998677 308.199998736 270.799999833 308.199998736 507.499999821 c 0
 308.199998736 751.299999893 410.699998558 865.500000894 566.599999785 865.500000894 c 0
 721.400000691 865.500000894 812.500001252 757.199999928 812.500001252 492.499999821 c 1
 811.100001276 261.599999785 726.100001156 145.699998677 556.799999833 145.699998677 c 0
810.828707269 898.485142572 m 1
 750.864668656 976.517995261 661.008552849 1029.89999956 517.900000513 1029.89999956 c 0
 254.100000441 1029.89999956 94.8000004292 817.299999654 94.8000004292 511.599999785 c 0
 94.8000004292 195.499999821 250.000000238 -17.3000000119 518.800000548 -17.3000000119 c 0
 679.315198616 -17.3000000119 765.924222917 55.5058340913 817.149768906 134.682580525 c 1
 836.000001192 0 l 1
 1017.29999965 0 l 1
 1017.29999965 1375.20000029 l 1
 803.900001347 1361.00000036 l 1
 803.900001347 1056.50000018 l 1
 810.828707269 898.485142572 l 1
EndSplineSet
EndChar

StartChar: degree
Encoding: 176 176 49
Width: 757
VWidth: 0
Flags: HW
LayerCount: 2
UndoRedoHistory
Layer: 1
Undoes
EndUndoes
Redoes
EndRedoes
EndUndoRedoHistory
Fore
SplineSet
382.49999994 791.400000691 m 0
 554.699999392 791.400000691 668.799999833 929.000000596 668.799999833 1076.80000079 c 0
 668.799999833 1228.90000099 550.299999416 1356.90000099 382.49999994 1356.90000099 c 0
 213.800000548 1356.90000099 95.7000001073 1228.90000099 95.7000001073 1076.80000079 c 0
 95.7000001073 925.900000513 212.300000608 791.400000691 382.49999994 791.400000691 c 0
382.799999952 913.400000215 m 0
 300.199999452 913.400000215 227.499999225 979.300000727 227.499999225 1074.50000089 c 0
 227.499999225 1168.30000108 300.799999475 1231.80000162 383.49999994 1231.80000162 c 0
 465.700000465 1231.80000162 537.300000727 1168.30000108 537.300000727 1074.50000089 c 0
 537.300000727 979.900000751 465.700000465 913.400000215 382.799999952 913.400000215 c 0
EndSplineSet
EndChar

StartChar: dieresis
Encoding: 168 168 50
Width: 690
VWidth: 0
Flags: HW
LayerCount: 2
UndoRedoHistory
Layer: 1
Undoes
EndUndoes
Redoes
EndRedoes
EndUndoRedoHistory
Fore
SplineSet
451.000000477 1129.80000043 m 1
 616.699999392 1129.80000043 l 1
 616.699999392 1348.9999994 l 1
 451.000000477 1348.9999994 l 1
 451.000000477 1129.80000043 l 1
86.1000009179 1129.80000043 m 1
 252.199999809 1129.80000043 l 1
 252.199999809 1348.9999994 l 1
 86.1000009179 1348.9999994 l 1
 86.1000009179 1129.80000043 l 1
EndSplineSet
EndChar

StartChar: dollar
Encoding: 36 36 51
Width: 1166
VWidth: 0
Flags: HW
LayerCount: 2
UndoRedoHistory
Layer: 1
Undoes
EndUndoes
Redoes
EndRedoes
EndUndoRedoHistory
Fore
SplineSet
544.600000024 -17.9372999975 m 1
 356.882599081 -13.6019599842 224.128899449 43.0237307162 133.400000215 98.400000453 c 1
 204.999999762 273.599998832 l 1
 286.199999928 217.899998605 431.199999213 168.599998355 579.399999857 168.599998355 c 0
 741.400000691 168.599998355 826.300001323 227.199998617 829.000001431 371.199999452 c 0
 831.100001514 473.900000393 776.100001514 526.500000417 647.600000262 572.600000978 c 1
 420.000000358 651.200001121 l 2
 254.100000203 709.000001311 146.800000072 816.700000823 149.500000179 1003.40000069 c 0
 153.30940033 1237.74800082 324.196300564 1350.56100014 544.600000024 1367.99000004 c 1
 544.600000024 1552.20000088 l 1
 649.799999475 1552.20000088 l 1
 650.300999495 1369.82200003 l 1
 791.906299559 1362.85400007 921.960299561 1318.03899976 1014.89999896 1260.5999999 c 1
 941.899999321 1088.10000163 l 1
 869.400000095 1121.80000138 745.700000226 1182.60000169 612.299999654 1182.60000169 c 0
 472.999999404 1182.60000169 371.999998331 1138.50000161 369.599998236 1008.40000069 c 0
 367.799998164 922.999999881 409.299998343 876.299999893 499.699999511 843.099999368 c 2
 713.399999499 766.899999201 l 2
 931.899998844 689.699999273 1053.99999952 593.499999821 1050.09999937 369.599999547 c 0
 1045.9374992 130.321259337 882.499499185 8.0147558019 649.90169948 -14.0373400412 c 1
 650.399999499 -189.400001168 l 1
 544.600000024 -189.400001168 l 1
 544.600000024 -17.9372999975 l 1
EndSplineSet
EndChar

StartChar: e
Encoding: 101 101 52
Width: 1106
VWidth: 0
Flags: HW
HStem: -18 88 918 86
LayerCount: 2
UndoRedoHistory
Layer: 1
Undoes
EndUndoes
Redoes
EndRedoes
EndUndoRedoHistory
Fore
SplineSet
610.399999499 -18 m 0
 762.799999356 -18 885.699999154 11.4000000954 981.09999913 69.6999999881 c 1
 946.399999142 217.899998724 l 1
 882.19999826 187.499998271 774.899998605 142.79999876 631.699999392 142.79999876 c 0
 459.578732622 142.79999876 323.322451552 238.052392551 309.629999175 458.500000417 c 1
 1000.19999909 458.500000417 l 1
 1000.19999909 458.500000417 1006.59999907 536.399999738 1006.59999907 555.599999905 c 0
 1006.59999907 836.099999845 849.599999428 1029.89999956 582.299999893 1029.89999956 c 0
 307.100000441 1029.19999957 94.8000004292 824.599999785 94.8000004292 503.899999678 c 0
 94.8000004292 179.399999857 309.200000048 -18 610.399999499 -18 c 0
808.543398257 596.499999344 m 1
 315.890541471 596.499999344 l 1
 334.466961643 778.245155372 460.051867646 873.200000763 585.199999928 873.200000763 c 0
 716.148573462 873.200000763 796.339508683 780.85779225 808.543398257 596.499999344 c 1
EndSplineSet
EndChar

StartChar: eight
Encoding: 56 56 53
Width: 1218
VWidth: 0
Flags: HW
LayerCount: 2
UndoRedoHistory
Layer: 1
Undoes
EndUndoes
Redoes
EndRedoes
EndUndoRedoHistory
Fore
SplineSet
611.09999913 766.299999654 m 1
 460.699998438 800.299999774 374.499998271 886.800000072 374.499998271 1020.80000043 c 0
 374.499998271 1136.30000097 473.399998546 1209.20000124 611.09999913 1209.20000124 c 0
 749.399999738 1209.20000124 844.699999988 1136.30000097 844.699999988 1020.80000043 c 0
 844.699999988 886.800000072 761.399999857 800.299999774 611.09999913 766.299999654 c 1
611.09999913 129.399999022 m 0
 446.599998236 129.399999022 353.89999789 210.499999225 353.89999789 350.799999833 c 0
 353.89999789 497.30000037 464.299998462 586.200000525 611.09999913 621.800000548 c 1
 757.799999833 586.200000525 865.700000346 493.900000274 865.700000346 351.499999821 c 0
 865.700000346 207.799999118 778.400000095 129.399999022 611.09999913 129.399999022 c 0
611.09999913 -18 m 0
 855.999999046 -18 1061.49999875 108.299999774 1061.49999875 351.399999619 c 0
 1061.49999875 519.899999797 968.399998307 644.800000191 825.799997449 705.600000024 c 1
 950.6999982 763.599999905 1035.09999865 863.200000048 1035.09999865 1019.70000035 c 0
 1035.09999865 1243.90000004 850.699999154 1361.50000018 610.699999154 1361.50000018 c 0
 371.499999106 1361.50000018 183.69999963 1243.90000004 183.69999963 1019.70000035 c 0
 183.69999963 861.700000107 276.700000107 758.899999797 402.400000691 704.699999988 c 1
 251.499999821 641.300000012 157.199999571 527 157.199999571 352.099999607 c 0
 157.199999571 109.399999738 365.699999273 -18 611.09999913 -18 c 0
EndSplineSet
EndChar

StartChar: exclam
Encoding: 33 33 54
Width: 555
VWidth: 0
Flags: HW
LayerCount: 2
UndoRedoHistory
Layer: 1
Undoes
EndUndoes
Redoes
EndRedoes
EndUndoRedoHistory
Fore
SplineSet
282.599998474 -9.10000008345 m 0
 364.699998438 -9.10000008345 415.39999795 54.9999997616 415.39999795 123.999999404 c 0
 415.39999795 193.699999034 364.699998438 257.499998868 282.599998474 257.499998868 c 0
 200.699998558 257.499998868 149.399999022 193.699999034 149.399999022 123.999999404 c 0
 149.399999022 54.9999997616 200.699998558 -9.10000008345 282.599998474 -9.10000008345 c 0
241.699998796 407.199999571 m 1
 333.099997938 407.199999571 l 1
 386.799997807 1179.20000207 l 1
 386.799997807 1347.90000051 l 1
 181.899998963 1347.90000051 l 1
 181.899998963 1179.20000207 l 1
 241.699998796 407.199999571 l 1
EndSplineSet
EndChar

StartChar: f
Encoding: 102 102 55
Width: 734
VWidth: 0
Flags: HW
LayerCount: 2
UndoRedoHistory
Layer: 1
Undoes
EndUndoes
Redoes
EndRedoes
EndUndoRedoHistory
Fore
SplineSet
233.400000572 0 m 1
 446.799998879 0 l 1
 446.799998879 863.000000954 l 1
 683.499998868 863.000000954 l 1
 683.499998868 1006.99999964 l 1
 446.799998879 1006.99999964 l 1
 446.799998879 1066.39999998 l 2
 446.799998879 1219.50000101 499.999999046 1239.6000011 587.399999261 1239.6000011 c 0
 628.599999309 1239.6000011 681.499999464 1232.40000105 702.499999106 1228.90000111 c 1
 720.699998915 1381.49999982 l 1
 673.799999714 1390.59999967 612.099999726 1398.99999976 548.599999547 1398.99999976 c 0
 362.599999905 1398.99999976 233.400000572 1323.59999955 233.400000572 1050.50000018 c 2
 233.400000572 1006.09231893 l 1
 77.6999999881 989.599999666 l 1
 72.6999999881 863.000000954 l 1
 233.400000572 863.000000954 l 1
 233.400000572 0 l 1
EndSplineSet
EndChar

StartChar: five
Encoding: 53 53 56
Width: 1191
VWidth: 0
Flags: HW
LayerCount: 2
UndoRedoHistory
Layer: 1
Undoes
EndUndoes
Redoes
EndRedoes
EndUndoRedoHistory
Fore
SplineSet
567.09999913 -18.3000000119 m 0
 861.699998438 -18.3000000119 1053.09999901 154.499999583 1053.09999901 429.50000006 c 0
 1053.09999901 670.599999666 889.89999944 850.499999821 626.09999913 850.499999821 c 0
 560.899998605 850.499999821 488.99999845 821.399999976 426.39999795 786.999999523 c 1
 427.799997926 831.099998772 452.899998128 1136.20000219 454.299998105 1169.80000162 c 1
 984.899998963 1169.80000162 l 1
 999.799998879 1341.40000021 l 1
 260.999999881 1341.40000021 l 1
 220.999999762 609.800000787 l 1
 380.399998784 586.800001025 l 1
 439.499998748 650.200001001 520.399999142 682.800001144 598.199999571 682.800001144 c 0
 750.800000906 682.800001144 834.100000799 577.400000334 834.100000799 429.399999976 c 0
 834.100000799 261.999998808 728.599999666 153.899998605 545.599999309 153.899998605 c 0
 408.699999869 153.899998605 279.600000143 227.89999789 238.199999094 254.799998522 c 1
 164.499999702 102.799999714 l 1
 214.400000811 68.4999991059 385.300000131 -18.3000000119 567.09999913 -18.3000000119 c 0
EndSplineSet
EndChar

StartChar: four
Encoding: 52 52 57
Width: 1208
VWidth: 0
Flags: HW
LayerCount: 2
UndoRedoHistory
Layer: 1
Undoes
EndUndoes
Redoes
EndRedoes
EndUndoRedoHistory
Fore
SplineSet
345.999997973 481.999999523 m 1
 732.200000405 1097.60000169 l 1
 732.200000405 481.999999523 l 1
 345.999997973 481.999999523 l 1
732.500000417 0 m 1
 941.499998629 0 l 1
 941.499998629 317.000000834 l 1
 1092.6999988 317.000000834 l 1
 1105.49999875 484.199999452 l 1
 941.499998629 484.199999452 l 1
 941.499998629 1341.40000021 l 1
 696.300001204 1341.40000021 l 1
 131.399999738 475.100000083 l 1
 131.399999738 317.000000834 l 1
 732.500000417 317.000000834 l 1
 732.500000417 0 l 1
EndSplineSet
EndChar

StartChar: g
Encoding: 103 103 58
Width: 1164
VWidth: 0
Flags: HW
HStem: -398 94 0 87 918 86
VStem: 120 114 913 117 913 34
LayerCount: 2
UndoRedoHistory
Layer: 1
Undoes
EndUndoes
Redoes
EndRedoes
EndUndoRedoHistory
Fore
SplineSet
462.10000056 -463.299999177 m 0
 840.800001025 -463.299999177 1027.90000004 -240.299999058 1027.90000004 105.099999726 c 2
 1027.90000004 1006.99999964 l 1
 836.900001466 1006.99999964 l 1
 826.044048586 883.768485193 l 1
 765.278289342 983.815033434 663.550972097 1029.89999956 535.200000763 1029.89999956 c 0
 266.299999416 1029.89999956 81.5000006557 817.099998534 81.5000006557 507.599999547 c 0
 81.5000006557 231.000000715 246.49999994 0 525.400000691 0 c 0
 651.425428527 0 757.428704267 41.5296264689 820.100001633 142.128492079 c 1
 820.100001633 33.7000009418 l 2
 820.100001633 -167.30000037 701.000001788 -295.500000536 457.100000441 -295.500000536 c 0
 448.200000286 -295.500000536 418.298826552 -295.590643697 232.000000954 -289.900000513 c 1
 232.000000954 -457.699999154 l 1
 443.498712103 -463.412354948 453.300000489 -463.299999177 462.10000056 -463.299999177 c 0
559.500000179 162.599998713 m 0
 364.499999225 162.599998713 294.899998963 330.899999917 294.899998963 515.199999571 c 0
 294.899998963 704.299999535 373.999999046 865.500000894 566.700000107 865.500000894 c 0
 752.800001264 865.500000894 822.200001597 737.500000179 822.200001597 539.600000143 c 2
 822.200001597 487.599999189 l 1
 820.800001621 306.199999332 752.600001097 162.599998713 559.500000179 162.599998713 c 0
EndSplineSet
EndChar

StartChar: grave
Encoding: 96 96 59
Width: 519
VWidth: 0
Flags: HW
LayerCount: 2
UndoRedoHistory
Layer: 1
Undoes
EndUndoes
Redoes
EndRedoes
EndUndoRedoHistory
Fore
SplineSet
333.000001669 1109.50000113 m 1
 465.000000358 1109.50000113 l 1
 292.800000548 1466.30000097 l 1
 31.0000020266 1466.30000097 l 1
 333.000001669 1109.50000113 l 1
EndSplineSet
EndChar

StartChar: greater
Encoding: 62 62 60
Width: 1116
VWidth: 0
Flags: HW
LayerCount: 2
UndoRedoHistory
Layer: 1
Undoes
EndUndoes
Redoes
EndRedoes
EndUndoRedoHistory
Fore
SplineSet
136.300000012 154.499999344 m 1
 1009.90000004 569.099999249 l 1
 1009.90000004 673.599998593 l 1
 137.200000048 1125.2999987 l 1
 137.200000048 951.49999994 l 1
 792.800002098 626.699998915 l 1
 136.300000012 334.699997962 l 1
 136.300000012 154.499999344 l 1
EndSplineSet
EndChar

StartChar: guillemotleft
Encoding: 171 171 61
Width: 944
VWidth: 0
Flags: HW
LayerCount: 2
UndoRedoHistory
Layer: 1
Undoes
EndUndoes
Redoes
EndRedoes
EndUndoRedoHistory
Fore
SplineSet
711.699999869 128.100000322 m 1
 866.599998116 170.599999905 l 1
 628.499998391 515.099999845 l 1
 869.999998093 858.499999702 l 1
 713.699999869 900.599999309 l 1
 429.400000215 516 l 1
 711.699999869 128.100000322 l 1
353.600000381 128.100000322 m 1
 515.499998868 170.599999905 l 1
 271.099998891 515.099999845 l 1
 519.699998915 858.499999702 l 1
 356.600000381 900.599999309 l 1
 84.7000005841 531.699999392 l 1
 89.0000011921 488.699999392 l 1
 353.600000381 128.100000322 l 1
EndSplineSet
EndChar

StartChar: h
Encoding: 104 104 62
Width: 1136
VWidth: 0
Flags: HW
HStem: 918 86
VStem: 180 114 850 114
LayerCount: 2
UndoRedoHistory
Layer: 1
Undoes
EndUndoes
Redoes
EndRedoes
EndUndoRedoHistory
Fore
SplineSet
143.60000062 0 m 1
 354.899998963 0 l 1
 354.899998963 513.800000906 l 2
 354.899998963 706.80000031 403.699999273 866.200000882 614.000000119 866.200000882 c 0
 744.900000751 866.200000882 789.800001025 786.100000441 789.800001025 614.399999857 c 2
 789.800001025 0 l 1
 1003.19999933 0 l 1
 1003.19999933 630.199999571 l 2
 1003.19999933 897.899999201 873.799999714 1029.89999956 657.999999642 1029.89999956 c 0
 533.249240076 1029.89999956 423.712974809 979.826981006 350.994152985 895.420235231 c 1
 356.999998927 1080.09999913 l 1
 356.999998927 1375.20000029 l 1
 143.60000062 1361.00000036 l 1
 143.60000062 0 l 1
EndSplineSet
EndChar

StartChar: hyphen
Encoding: 45 45 63
Width: 632
VWidth: 0
Flags: HW
LayerCount: 2
UndoRedoHistory
Layer: 1
Undoes
EndUndoes
Redoes
EndRedoes
EndUndoRedoHistory
Fore
SplineSet
81.3000009656 428.800000906 m 1
 555.700000107 428.800000906 l 1
 555.700000107 596.099999607 l 1
 81.3000009656 596.099999607 l 1
 81.3000009656 428.800000906 l 1
EndSplineSet
EndChar

StartChar: i
Encoding: 105 105 64
Width: 505
VWidth: 0
Flags: HW
LayerCount: 2
UndoRedoHistory
Layer: 1
Undoes
EndUndoes
Redoes
EndRedoes
EndUndoRedoHistory
Fore
SplineSet
149.900000513 1172.60000062 m 1
 363.29999882 1172.60000062 l 1
 363.29999882 1352.60000002 l 1
 149.900000513 1352.60000002 l 1
 149.900000513 1172.60000062 l 1
149.900000513 0 m 1
 363.29999882 0 l 1
 363.29999882 1006.99999964 l 1
 149.900000513 1006.99999964 l 1
 149.900000513 0 l 1
EndSplineSet
EndChar

StartChar: j
Encoding: 106 106 65
Width: 543
VWidth: 0
Flags: HW
LayerCount: 2
UndoRedoHistory
Layer: 1
Undoes
EndUndoes
Redoes
EndRedoes
EndUndoRedoHistory
Fore
SplineSet
192.600000381 1172.60000062 m 1
 404.499998748 1172.60000062 l 1
 404.499998748 1352.60000002 l 1
 192.600000381 1352.60000002 l 1
 192.600000381 1172.60000062 l 1
11.300000608 -388.600000381 m 1
 65.0000003576 -388.600000381 l 2
 346.099998891 -388.600000381 404.499998748 -275.700001419 404.499998748 -13.7000021338 c 2
 404.499998748 1007.69999963 l 1
 192.600000381 1007.69999963 l 1
 192.600000381 -28.0000009537 l 2
 192.600000381 -185.300001442 183.200000525 -221.800001383 41.6000005007 -221.800001383 c 2
 -12.8999992013 -221.800001383 l 1
 11.300000608 -388.600000381 l 1
EndSplineSet
EndChar

StartChar: k
Encoding: 107 107 66
Width: 1074
VWidth: 0
Flags: HW
LayerCount: 2
UndoRedoHistory
Layer: 1
Undoes
EndUndoes
Redoes
EndRedoes
EndUndoRedoHistory
Fore
SplineSet
143.60000062 0 m 1
 356.999998927 0 l 1
 356.999998927 352.501118866 l 1
 454.306807166 443.586927049 l 1
 806.200000763 0 l 1
 1056.49999875 0 l 1
 620.482142838 546.555014911 l 1
 1037.89999896 1006.99999964 l 1
 771.900001228 1006.99999964 l 1
 351.515646025 545.397917356 l 1
 356.999998927 746.599998474 l 1
 356.999998927 1375.20000029 l 1
 143.60000062 1361.00000036 l 1
 143.60000062 0 l 1
EndSplineSet
EndChar

StartChar: l
Encoding: 108 108 67
Width: 643
VWidth: 0
Flags: HW
HStem: -10 81
VStem: 180 114
LayerCount: 2
UndoRedoHistory
Layer: 1
Undoes
EndUndoes
Redoes
EndRedoes
EndUndoRedoHistory
Fore
SplineSet
489.399999022 -12.0999999642 m 0
 561.099998891 -12.0999999642 622.999998689 2.59999990463 633.899998844 5.59999990463 c 1
 633.899998844 154.999998689 l 1
 616.499998987 153.299998701 559.59999907 145.899998724 523.399998784 145.899998724 c 0
 426.699998319 145.899998724 358.399998903 175.299999058 358.399998903 344.19999814 c 2
 358.399998903 1375.20000029 l 1
 145.000000596 1361.00000036 l 1
 145.000000596 353.299998105 l 2
 145.000000596 95.1999988556 258.90000087 -12.0999999642 489.399999022 -12.0999999642 c 0
EndSplineSet
EndChar

StartChar: less
Encoding: 60 60 68
Width: 1112
VWidth: 0
Flags: HW
LayerCount: 2
UndoRedoHistory
Layer: 1
Undoes
EndUndoes
Redoes
EndRedoes
EndUndoRedoHistory
Fore
SplineSet
971.700000107 150.999999285 m 1
 971.700000107 150.999999285 971.300000131 330.199997902 970.600000143 330.89999789 c 2
 314.499998033 626.699998915 l 1
 972.600000143 948.099999845 l 1
 972.600000143 1122.19999862 l 1
 99.3000001311 674.599998593 l 1
 99.3000001311 569.699999273 l 1
 971.700000107 150.999999285 l 1
EndSplineSet
EndChar

StartChar: logicalnot
Encoding: 172 172 69
Width: 1128
VWidth: 0
Flags: HW
LayerCount: 2
UndoRedoHistory
Layer: 1
Undoes
EndUndoes
Redoes
EndRedoes
EndUndoRedoHistory
Fore
SplineSet
864.100000918 232.900000155 m 1
 1018.99999952 232.900000155 l 1
 1018.99999952 761.099999607 l 1
 108.699999869 761.099999607 l 1
 108.699999869 599.800000787 l 1
 864.100000918 599.800000787 l 1
 864.100000918 232.900000155 l 1
EndSplineSet
EndChar

StartChar: m
Encoding: 109 109 70
Width: 1688
VWidth: 0
Flags: HW
HStem: 918 86
VStem: 180 114 180 92 790 114 1386 114
LayerCount: 2
UndoRedoHistory
Layer: 1
Undoes
EndUndoes
Redoes
EndRedoes
EndUndoRedoHistory
Fore
SplineSet
143.60000062 0 m 1
 356.999998927 0 l 1
 356.999998927 541.700001895 l 1
 367.499999344 726.400001287 416.600000381 866.200000882 590.399999976 866.200000882 c 0
 718.500000417 866.200000882 746.600000739 770.500000656 746.600000739 576.499999464 c 2
 746.600000739 0 l 1
 959.999999046 0 l 1
 959.999999046 559.699998558 l 1
 963.982672785 620.267039102 969.140095528 666.359735321 980.122152118 698.99631318 c 1
 1011.07093451 806.95516732 1083.83276496 866.200000882 1186.40000021 866.200000882 c 0
 1328.7000013 866.200000882 1341.90000075 741.599999189 1341.90000075 573.599999785 c 2
 1341.90000075 0 l 1
 1555.29999906 0 l 1
 1555.29999906 643.899999917 l 2
 1555.29999906 891.599999785 1453.69999915 1029.89999956 1231.39999962 1029.89999956 c 0
 1100.91351769 1029.89999956 994.291187212 969.967555145 919.894258468 860.040219105 c 1
 867.906551959 965.121532197 791.193947604 1029.8999996 644.09999913 1029.89999956 c 0
 502.724725061 1029.89999956 403.120542824 967.074657504 337.914704177 882.278977297 c 1
 316.799999237 1006.99999964 l 1
 143.60000062 1006.99999964 l 1
 143.60000062 0 l 1
EndSplineSet
EndChar

StartChar: macron
Encoding: 175 175 71
Width: 887
VWidth: 0
Flags: HW
LayerCount: 2
UndoRedoHistory
Layer: 1
Undoes
EndUndoes
Redoes
EndRedoes
EndUndoRedoHistory
Fore
SplineSet
144.800002217 1226.09999949 m 1
 751.500000536 1226.09999949 l 1
 751.500000536 1365.2999987 l 1
 144.800002217 1365.2999987 l 1
 144.800002217 1226.09999949 l 1
EndSplineSet
EndChar

StartChar: n
Encoding: 110 110 72
Width: 1160
VWidth: 0
Flags: HW
HStem: 0 21<143.6 357 357 357 813.9 1027.3 1027.3 1027.3> 918 86 966 20
VStem: 180 114 844 114
LayerCount: 2
UndoRedoHistory
Layer: 1
Undoes
EndUndoes
Redoes
EndRedoes
EndUndoRedoHistory
Fore
SplineSet
143.60000062 0 m 1
 356.999998927 0 l 1
 356.999998927 520.900000989 l 2
 356.999998927 719.800000429 422.599998951 866.200000882 637.099999726 866.200000882 c 0
 777.500000298 866.200000882 813.500000536 774.500000536 813.900000513 617.400000215 c 2
 813.900000513 0 l 1
 1027.29999882 0 l 1
 1027.29999882 626.199999452 l 2
 1027.29999882 885.599999785 918.199998975 1029.89999956 685.899999082 1029.89999956 c 0
 530.695466682 1029.89999956 420.163849781 970.818801978 342.722802059 876.930047548 c 1
 320.699999392 1006.99999964 l 1
 143.60000062 1006.99999964 l 1
 143.60000062 0 l 1
EndSplineSet
EndChar

StartChar: nine
Encoding: 57 57 73
Width: 1190
VWidth: 0
Flags: HW
LayerCount: 2
UndoRedoHistory
Layer: 1
Undoes
EndUndoes
Redoes
EndRedoes
EndUndoRedoHistory
Fore
SplineSet
607.199999452 672.299999654 m 0
 436.299999058 672.299999654 349.699998558 778.50000006 349.699998558 933.900000393 c 0
 349.699998558 1083.00000072 443.899998844 1196.60000145 612.399999499 1196.60000145 c 0
 778.700000226 1196.60000145 862.800000548 1086.30000073 862.800000548 938.800000429 c 0
 862.800000548 760.199999094 753.499998748 672.299999654 607.199999452 672.299999654 c 0
273.800000668 0 m 1
 531.899998486 0 l 1
 531.899998486 0 870.599998116 455.199999452 885.299997866 474.799999118 c 0
 989.899998486 618.49999994 1075.69999868 744 1075.69999868 927.400000453 c 0
 1075.69999868 1176.79999971 890.299999535 1361.50000018 603.399999619 1361.50000018 c 0
 328.299999774 1361.50000018 134.400000453 1183.09999996 134.400000453 929.700000465 c 0
 134.400000453 680.300000608 327.000000477 515.200000763 566.799999833 515.200000763 c 0
 610.409149672 515.200000763 652.308451392 526.672528604 689.398281028 542.531682364 c 1
 658.431628328 503.07731659 628.739068606 464.941042229 614.500001013 445.800000548 c 2
 273.800000668 0 l 1
EndSplineSet
EndChar

StartChar: numbersign
Encoding: 35 35 74
Width: 1179
VWidth: 0
Flags: HW
LayerCount: 2
UndoRedoHistory
Layer: 1
Undoes
EndUndoes
Redoes
EndRedoes
EndUndoRedoHistory
Fore
SplineSet
493.299998224 517.599998832 m 1
 555.299998701 827.900000751 l 1
 738.100000083 827.900000751 l 1
 677.499999583 517.599998832 l 1
 493.299998224 517.599998832 l 1
244.799999833 -16.900000155 m 1
 395.499998391 -16.900000155 l 1
 466.699998438 371.100000083 l 1
 648.399999857 371.100000083 l 1
 575.799999714 -16.900000155 l 1
 738.299998581 -16.900000155 l 1
 813.499998748 371.100000083 l 1
 979.199997663 371.100000083 l 1
 988.199997663 517.599998832 l 1
 835.599998474 517.599998832 l 1
 890.899998724 827.900000751 l 1
 1048.0999977 827.900000751 l 1
 1060.0999977 974.999999404 l 1
 917.99999845 974.999999404 l 1
 980.999998331 1332.99999988 l 1
 830.199999809 1332.99999988 l 1
 765.799999833 974.999999404 l 1
 583.599998474 974.999999404 l 1
 652.899998605 1332.99999988 l 1
 489.19999969 1332.99999988 l 1
 415.899999559 974.999999404 l 1
 223.500000298 974.999999404 l 1
 215.900000274 826.900000751 l 1
 388.69999975 826.900000751 l 1
 338.599999547 517.599998832 l 1
 154.500000298 517.599998832 l 1
 145.500000298 371.100000083 l 1
 311.799999833 371.100000083 l 1
 244.799999833 -16.900000155 l 1
EndSplineSet
EndChar

StartChar: o
Encoding: 111 111 75
Width: 1162
VWidth: 0
Flags: HW
HStem: -18 86 918 86
VStem: 120 112 918 112
LayerCount: 2
UndoRedoHistory
Layer: 1
Undoes
EndUndoes
Redoes
EndRedoes
EndUndoRedoHistory
Fore
SplineSet
581.299999893 -18 m 0
 877.299999416 -18 1067.79999936 190.400000215 1067.79999936 505.399999738 c 0
 1067.79999936 821.499999464 877.099999845 1029.89999956 581.299999893 1029.89999956 c 0
 280.200000167 1029.89999956 94.8000004292 825.599999309 94.8000004292 505.399999738 c 0
 94.8000004292 193.000000119 289.300000012 -18 581.299999893 -18 c 0
581.299999893 144.999998689 m 0
 406.299998939 144.999998689 307.599998713 281.399999619 307.599998713 504.799999714 c 0
 307.599998713 728.799999952 407.699998915 866.200000882 581.299999893 866.200000882 c 0
 758.100000918 866.200000882 855.000001073 728.49999994 855.000001073 504.499999702 c 0
 855.000001073 279.999999642 758.300000966 144.999998689 581.299999893 144.999998689 c 0
EndSplineSet
EndChar

StartChar: one
Encoding: 49 49 76
Width: 1117
VWidth: 0
Flags: HW
LayerCount: 2
UndoRedoHistory
Layer: 1
Undoes
EndUndoes
Redoes
EndRedoes
EndUndoRedoHistory
Fore
SplineSet
195.099999964 0 m 1
 981.999999404 0 l 1
 981.999999404 166.399998665 l 1
 713.599998951 166.399998665 l 1
 713.599998951 1341.40000021 l 1
 525.30000025 1341.40000021 l 1
 450.30000037 1287.80000031 306.999999762 1238.90000027 206.500000417 1213.80000055 c 1
 206.500000417 1045.20000184 l 1
 303.817971297 1059.76905042 425.186040331 1099.05811543 500.200000644 1142.88904436 c 1
 500.200000644 166.399998665 l 1
 195.099999964 166.399998665 l 1
 195.099999964 0 l 1
EndSplineSet
EndChar

StartChar: ordfeminine
Encoding: 170 170 77
Width: 709
VWidth: 0
Flags: HW
LayerCount: 2
UndoRedoHistory
Layer: 1
Undoes
EndUndoes
Redoes
EndRedoes
EndUndoRedoHistory
Fore
SplineSet
316.900001228 832.800000787 m 0
 399.800002337 832.800000787 451.200002074 899.10000211 474.500001252 985.50000304 c 1
 474.500001252 1041.3000018 l 1
 348.200001836 1025.90000194 226.80000031 1018.60000241 226.80000031 918.400001407 c 0
 226.80000031 857.40000093 264.200000644 832.800000787 316.900001228 832.800000787 c 0
113.500000775 531.900001824 m 1
 113.500000775 642.20000124 l 1
 620.500000298 642.20000124 l 1
 620.500000298 531.900001824 l 1
 113.500000775 531.900001824 l 1
299.900001228 718.700001299 m 0
 185.800001144 718.700001299 94.8000013828 792.400001526 94.8000013828 920.400001407 c 0
 94.8000013828 1104.80000103 283.600000143 1127.20000124 474.500001252 1143.40000117 c 1
 474.500001252 1161.30000108 l 1
 472.600001216 1258.30000144 445.100001276 1294.70000178 365.200000882 1294.70000178 c 0
 303.400000691 1294.70000178 235.200000882 1285.20000196 158.600001335 1230.00000119 c 1
 107.800001144 1323.10000032 l 1
 183.400000811 1389.3000012 277.200000525 1415.20000124 374.800000668 1415.20000124 c 0
 500.80000031 1415.20000124 609.600000024 1352.30000108 609.600000024 1183.00000107 c 2
 608.399999976 853.200001597 l 2
 608.399999976 845.700001419 609.49999994 775.700003088 612.200000048 734.300001442 c 1
 490.000000715 734.300001442 l 1
 482.100000918 802.200001597 l 1
 443.400001049 752.400001407 374.200001478 718.700001299 299.900001228 718.700001299 c 0
EndSplineSet
EndChar

StartChar: p
Encoding: 112 112 78
Width: 1163
VWidth: 0
Flags: HW
HStem: -18 86 918 86
VStem: 180 114 180 91 943 114
LayerCount: 2
UndoRedoHistory
Layer: 1
Undoes
EndUndoes
Redoes
EndRedoes
EndUndoRedoHistory
Fore
SplineSet
611.800000191 145.699998677 m 0
 448.599999428 145.699998677 356.799998879 266.499999583 356.799998879 522.499999702 c 1
 358.199998856 749.299999774 443.59999907 866.200000882 612.600000381 866.200000882 c 0
 771.100001633 866.200000882 854.800001502 739.399999738 854.800001502 506.899999678 c 0
 854.800001502 275.699999392 768.400001407 145.699998677 611.800000191 145.699998677 c 0
145.700000584 -420.300000489 m 1
 359.099998891 -408.800000548 l 1
 359.099998891 -34.8000007868 l 1
 354.344986889 123.761361046 l 1
 412.892295583 51.1236878917 511.364235862 -18 649.599999785 -18 c 0
 911.999999881 -18 1068.19999981 201.299999774 1068.19999981 504.899999678 c 0
 1068.19999981 804.199999928 921.599999905 1029.89999956 661.89999944 1029.89999956 c 0
 539.777649134 1029.89999956 425.312987975 976.506941388 347.242035907 873.607254738 c 1
 327.699999034 1006.99999964 l 1
 145.700000584 1006.99999964 l 1
 145.700000584 -420.300000489 l 1
EndSplineSet
EndChar

StartChar: paragraph
Encoding: 182 182 79
Width: 1048
VWidth: 0
Flags: HW
LayerCount: 2
UndoRedoHistory
Layer: 1
Undoes
EndUndoes
Redoes
EndRedoes
EndUndoRedoHistory
Fore
SplineSet
406.900001585 -139.100000203 m 1
 556.200000048 -139.100000203 l 1
 556.200000048 1244.10000223 l 1
 719.500001609 1244.10000223 l 1
 719.500001609 -139.100000203 l 1
 854.500000298 -139.100000203 l 1
 854.500000298 1244.10000223 l 1
 924.800000191 1244.10000223 l 1
 924.800000191 1390.3000012 l 1
 522.099999249 1390.3000012 l 2
 242.899998605 1390.3000012 81.4000006914 1269.39999974 81.4000006914 1069.30000132 c 0
 81.4000006914 900.300001562 214.800001144 749.500001013 406.900001585 737.700001299 c 1
 406.900001585 -139.100000203 l 1
EndSplineSet
EndChar

StartChar: parenleft
Encoding: 40 40 80
Width: 684
VWidth: 0
Flags: HW
LayerCount: 2
UndoRedoHistory
Layer: 1
Undoes
EndUndoes
Redoes
EndRedoes
EndUndoRedoHistory
Fore
SplineSet
408.599999309 -172.100001276 m 1
 603.39999783 -172.100001276 l 1
 450.699997246 77.7999993563 360.199998021 345.500000179 360.199998021 642.400000215 c 0
 360.199998021 944.599999666 473.699996769 1242.09999865 604.39999783 1438.10000044 c 1
 407.299999297 1438.10000044 l 1
 260.59999907 1234.09999985 156.999999523 951.299999893 156.999999523 639.500000179 c 0
 156.999999523 317.199999928 255.299999297 43.2999987006 408.599999309 -172.100001276 c 1
EndSplineSet
EndChar

StartChar: parenright
Encoding: 41 41 81
Width: 698
VWidth: 0
Flags: HW
LayerCount: 2
UndoRedoHistory
Layer: 1
Undoes
EndUndoes
Redoes
EndRedoes
EndUndoRedoHistory
Fore
SplineSet
100.600000501 -172.100001276 m 1
 296.799998999 -172.100001276 l 1
 441.699999154 24.3999990225 547.699998796 326.999999762 547.699998796 651.399999976 c 0
 547.699998796 961.099999726 451.799999118 1215.20000017 296.699999034 1438.10000044 c 1
 101.000000477 1438.10000044 l 1
 255.500001132 1183.99999964 344.500000298 939.69999975 344.500000298 651.50000006 c 0
 344.500000298 340.600000262 229.50000149 19.7000003457 100.600000501 -172.100001276 c 1
EndSplineSet
EndChar

StartChar: percent
Encoding: 37 37 82
Width: 1724
VWidth: 0
Flags: HW
LayerCount: 2
UndoRedoHistory
Layer: 1
Undoes
EndUndoes
Redoes
EndRedoes
EndUndoRedoHistory
Fore
SplineSet
378.700000584 0 m 1
 1162.00000048 1352.60000002 l 1
 1333.69999915 1352.60000002 l 1
 558.699999273 0 l 1
 378.700000584 0 l 1
388.600000024 664.399999976 m 0
 173.000000119 664.399999976 61.2000002861 817.399999976 61.2000002861 1014.39999998 c 0
 61.2000002861 1212.39999998 176.000000119 1364.39999998 388.600000024 1364.39999998 c 0
 605.199999928 1364.39999998 716.999999762 1215.39999998 716.999999762 1014.39999998 c 0
 716.999999762 817.399999976 602.199999928 664.399999976 388.600000024 664.399999976 c 0
389.200000048 774.199999332 m 0
 523.900000393 774.199999332 581.500000536 880.799999595 581.500000536 1016.09999996 c 0
 581.500000536 1156.00000036 522.900000393 1255.30000061 389.200000048 1255.30000061 c 0
 254.19999969 1255.30000061 194.599999547 1150.70000035 194.599999547 1016.09999996 c 0
 194.599999547 877.199999571 254.499999702 774.199999332 389.200000048 774.199999332 c 0
1335.49999946 97.0999993682 m 0
 1470.19999981 97.0999993682 1527.79999995 203.69999963 1527.79999995 339 c 0
 1527.79999995 478.900000393 1469.19999981 578.200000644 1335.49999946 578.200000644 c 0
 1200.49999911 578.200000644 1140.89999896 473.600000381 1140.89999896 339 c 0
 1140.89999896 200.099999607 1200.79999912 97.0999993682 1335.49999946 97.0999993682 c 0
1334.89999944 -12.6999999881 m 0
 1119.29999954 -12.6999999881 1007.4999997 140.300000012 1007.4999997 337.300000012 c 0
 1007.4999997 535.300000012 1122.29999954 687.300000012 1334.89999944 687.300000012 c 0
 1551.49999934 687.300000012 1663.29999918 538.300000012 1663.29999918 337.300000012 c 0
 1663.29999918 140.300000012 1548.49999934 -12.6999999881 1334.89999944 -12.6999999881 c 0
EndSplineSet
EndChar

StartChar: period
Encoding: 46 46 83
Width: 514
VWidth: 0
Flags: HW
LayerCount: 2
UndoRedoHistory
Layer: 1
Undoes
EndUndoes
Redoes
EndRedoes
EndUndoRedoHistory
Fore
SplineSet
261.499999225 -3.90000027418 m 0
 343.299999177 -3.90000027418 394.299998701 59.4999995828 394.299998701 128.499999225 c 0
 394.299998701 198.199998856 343.299999177 262.299998701 261.499999225 262.299998701 c 0
 178.999999285 262.299998701 127.599999785 198.199998856 127.599999785 128.499999225 c 0
 127.599999785 59.0999996066 179.999999285 -3.90000027418 261.499999225 -3.90000027418 c 0
EndSplineSet
EndChar

StartChar: periodcentered
Encoding: 183 183 84
Width: 372
VWidth: 0
Flags: HW
LayerCount: 2
UndoRedoHistory
Layer: 1
Undoes
EndUndoes
Redoes
EndRedoes
EndUndoRedoHistory
Fore
SplineSet
107 511 m 1
 107 691 l 1
 260 691 l 1
 260 511 l 1
 107 511 l 1
EndSplineSet
EndChar

StartChar: plus
Encoding: 43 43 85
Width: 1042
VWidth: 0
Flags: HW
LayerCount: 2
UndoRedoHistory
Layer: 1
Undoes
EndUndoes
Redoes
EndRedoes
EndUndoRedoHistory
Fore
SplineSet
447.600000739 143.500000536 m 1
 608.499999464 143.500000536 l 1
 608.499999464 517.000000596 l 1
 964.999999285 517.000000596 l 1
 964.999999285 671.299999177 l 1
 609.199999452 671.299999177 l 1
 609.199999452 1043.09999913 l 1
 448.300000727 1043.09999913 l 1
 448.300000727 671.299999177 l 1
 88.4000008106 671.299999177 l 1
 88.4000008106 517.000000596 l 1
 447.600000739 517.000000596 l 1
 447.600000739 143.500000536 l 1
EndSplineSet
EndChar

StartChar: plusminus
Encoding: 177 177 86
Width: 1118
VWidth: 0
Flags: HW
LayerCount: 2
UndoRedoHistory
Layer: 1
Undoes
EndUndoes
Redoes
EndRedoes
EndUndoRedoHistory
Fore
SplineSet
480.900000155 221.199999213 m 1
 642.499998868 221.199999213 l 1
 642.499998868 568.099999726 l 1
 980.799998999 568.099999726 l 1
 980.799998999 729.399998188 l 1
 641.799998879 729.399998188 l 1
 641.799998879 1068.2999987 l 1
 480.900000155 1068.2999987 l 1
 480.900000155 729.399998188 l 1
 139.899999917 729.399998188 l 1
 139.899999917 568.099999726 l 1
 480.900000155 568.099999726 l 1
 480.900000155 221.199999213 l 1
131.199999571 0 m 1
 131.199999571 147.599998832 l 1
 999.099999726 147.599998832 l 1
 999.099999726 0 l 1
 131.199999571 0 l 1
EndSplineSet
EndChar

StartChar: q
Encoding: 113 113 87
Width: 1173
VWidth: 0
Flags: HW
LayerCount: 2
UndoRedoHistory
Layer: 1
Undoes
EndUndoes
Redoes
EndRedoes
EndUndoRedoHistory
Fore
SplineSet
562.700000226 144.299998701 m 0
 399.099999011 144.299998701 307.599998713 272.199999571 307.599998713 505.599999785 c 0
 307.599998713 738.899999797 398.799998879 865.500000894 561.200000286 865.500000894 c 0
 738.300001562 865.500000894 821.700001657 746 821.700001657 505.500000417 c 1
 820.500001729 259.999999881 741.600001812 144.299998701 562.700000226 144.299998701 c 0
817.100001872 -420.300000489 m 1
 1029.90000015 -408.000000596 l 1
 1029.90000015 1006.99999964 l 1
 840.600001574 1006.99999964 l 1
 825.205766985 881.000129222 l 1
 767.662820277 962.30848517 676.136740633 1029.89999956 524.700000703 1029.89999956 c 0
 249.10000056 1029.89999956 94.8000004292 808.599999666 94.8000004292 503.399999619 c 0
 94.8000004292 198.999999881 266.400000572 -18 526.000000596 -18 c 0
 662.933161168 -18 755.944712864 38.8084332452 820.760364767 125.155283755 c 1
 817.100001872 -19.4000014067 l 1
 817.100001872 -420.300000489 l 1
EndSplineSet
EndChar

StartChar: question
Encoding: 63 63 88
Width: 934
VWidth: 0
Flags: HW
LayerCount: 2
UndoRedoHistory
Layer: 1
Undoes
EndUndoes
Redoes
EndRedoes
EndUndoRedoHistory
Fore
SplineSet
433.099999011 -9.10000008345 m 0
 513.699999034 -9.10000008345 563.199998617 54.9999997616 563.199998617 123.999999404 c 0
 563.199998617 193.699999034 513.699999034 257.499998868 433.099999011 257.499998868 c 0
 351.999999046 257.499998868 299.599999547 193.699999034 299.599999547 123.999999404 c 0
 299.599999547 54.5999997854 352.699999034 -9.10000008345 433.099999011 -9.10000008345 c 0
474.199998379 409.499999464 m 1
 608.699998438 696.100000203 806.399998188 836.900000274 806.399998188 1071.00000083 c 0
 806.399998188 1273.10000032 644.999999285 1375.00000048 467.699998677 1375.00000048 c 0
 345.399999619 1375.00000048 235.799999237 1345.30000073 149.999999404 1282.90000063 c 1
 205.79999876 1139.30000144 l 1
 253.599998593 1168.90000135 331.399998784 1212.70000142 443.099998653 1212.70000142 c 0
 557.599998951 1212.70000142 630.099999368 1157.40000165 631.39999938 1049.00000119 c 1
 631.39999938 880.500000775 395.199998379 648.099998415 379.59999907 412.499999344 c 1
 474.199998379 409.499999464 l 1
EndSplineSet
EndChar

StartChar: quotedbl
Encoding: 34 34 89
Width: 698
VWidth: 0
Flags: HW
LayerCount: 2
UndoRedoHistory
Layer: 1
Undoes
EndUndoes
Redoes
EndRedoes
EndUndoRedoHistory
Fore
SplineSet
467.399998069 877.500001609 m 1
 592.099996626 877.500001609 l 1
 618.899996579 1352.80000067 l 1
 441.699998319 1352.80000067 l 1
 467.399998069 877.500001609 l 1
135.299999893 878.700001657 m 1
 259.399998426 878.700001657 l 1
 287.099998415 1352.80000067 l 1
 109.600000143 1352.80000067 l 1
 135.299999893 878.700001657 l 1
EndSplineSet
EndChar

StartChar: quotesingle
Encoding: 39 39 90
Width: 435
VWidth: 0
Flags: HW
LayerCount: 2
UndoRedoHistory
Layer: 1
Undoes
EndUndoes
Redoes
EndRedoes
EndUndoRedoHistory
Fore
SplineSet
155.199998856 860.000001073 m 1
 282.699997842 860.000001073 l 1
 304.099997699 1346.40000021 l 1
 129.799999118 1346.40000021 l 1
 155.199998856 860.000001073 l 1
EndSplineSet
EndChar

StartChar: r
Encoding: 114 114 91
Width: 776
VWidth: 0
Flags: HW
HStem: 910 88
VStem: 180 114 180 86
LayerCount: 2
UndoRedoHistory
Layer: 1
Undoes
EndUndoes
Redoes
EndRedoes
EndUndoRedoHistory
Fore
SplineSet
145.000000596 0 m 1
 358.399998903 0 l 1
 358.399998903 556.100000203 l 2
 358.399998903 719.300000489 471.299999297 837.900001228 644.199999332 837.900001228 c 0
 668.099999249 837.900001228 692.799999237 835.900001228 721.899999082 830.20000124 c 1
 727.09999913 1008.39999974 l 1
 702.199999213 1013.4999997 679.09999913 1014.09999973 653.999999046 1014.09999973 c 0
 549.094461779 1014.09999973 432.44603781 960.396861222 345.065890728 838.436149013 c 1
 321.999999046 1006.99999964 l 1
 145.000000596 1006.99999964 l 1
 145.000000596 0 l 1
EndSplineSet
EndChar

StartChar: registered
Encoding: 174 174 92
Width: 1601
VWidth: 0
Flags: HW
LayerCount: 2
UndoRedoHistory
Layer: 1
Undoes
EndUndoes
Redoes
EndRedoes
EndUndoRedoHistory
Fore
SplineSet
804.800001383 -11.1000004411 m 0
 1177.00000119 -11.1000004411 1518.50000197 258.599998951 1518.50000197 693.700000226 c 0
 1518.50000197 1128.10000151 1176.3000012 1399.50000089 804.100001395 1399.50000089 c 0
 433.300001562 1399.50000089 93.0000008345 1128.8000015 93.0000008345 693.700000226 c 0
 93.0000008345 258.599998951 434.00000155 -11.1000004411 804.800001383 -11.1000004411 c 0
804.800001383 85.7999991179 m 0
 478.00000155 85.7999991179 206.700000465 330.099998534 206.700000465 693.700000226 c 0
 206.700000465 1055.90000194 477.300001562 1301.60000134 804.100001395 1301.60000134 c 0
 1133.70000118 1301.60000134 1404.80000234 1055.60000193 1404.80000234 693.000000238 c 0
 1404.80000234 330.399998546 1133.70000118 85.7999991179 804.800001383 85.7999991179 c 0
652.800000668 767.60000062 m 1
 652.800000668 1024.90000147 l 1
 787.900002062 1024.90000147 l 2
 933.300002396 1024.90000147 994.100002348 1014.90000123 994.100002348 900.200001001 c 0
 994.100002348 794.700001061 937.600002766 767.60000062 807.900002539 767.60000062 c 2
 652.800000668 767.60000062 l 1
520.900001347 262.400000453 m 1
 653.200000644 262.400000453 l 1
 653.200000644 651.500001252 l 1
 811.700002134 651.500001252 l 1
 832.700001776 630.500001609 1015.10000223 262.400000453 1015.10000223 262.400000453 c 1
 1163.10000139 262.400000453 l 1
 1163.10000139 262.400000453 979.300000846 619.400002003 941.50000149 669.800001144 c 1
 1072.20000136 695.100000799 1125.30000156 774.600000978 1125.30000156 903.100001037 c 0
 1125.30000156 1070.90000075 1018.3000024 1140.30000085 816.600001693 1140.30000085 c 2
 520.900001347 1140.30000085 l 1
 520.900001347 262.400000453 l 1
EndSplineSet
EndChar

StartChar: s
Encoding: 115 115 93
Width: 928
VWidth: 0
Flags: HW
HStem: -18 86 918 86
VStem: 133 100 690 97
LayerCount: 2
UndoRedoHistory
Layer: 1
Undoes
EndUndoes
Redoes
EndRedoes
EndUndoRedoHistory
Fore
SplineSet
471.69999963 -17.3000000119 m 0
 700.999999285 -17.3000000119 835.299999177 90.5783096654 835.299999177 287.399999261 c 0
 835.299999177 442.899999082 748.899999797 516.199999213 561.099999011 590.999999166 c 1
 491.399998426 618.099999249 l 1
 363.296698343 670.675299073 320.49999851 693.39999938 320.49999851 764.699999869 c 0
 320.49999851 833.30000025 383.799998879 873.200000763 492.599999785 873.200000763 c 0
 586.399999976 873.200000763 678.199999452 841.40000093 747.699999273 807.700001061 c 1
 797.299998939 953.600000024 l 1
 700.899999201 1000.49999982 603.499999702 1029.89999956 482.69999975 1029.89999956 c 0
 260.499999821 1029.89999956 131.600000024 924.099999368 131.600000024 746.49999994 c 0
 132.300000012 601.59850062 199.69999963 532.900000274 373.699999869 460.500000536 c 2
 440.700000465 433.000000477 l 1
 581.7207013 373.669900503 636.800000906 342.700000107 636.800000906 265.999999642 c 1
 635.40000093 181.799999118 589.900000513 139.399998784 473.799999714 137.29999882 c 0
 361.799999237 135.199998856 239.199999928 188.299998462 171.400000215 228.699998081 c 1
 130.900000393 80.099999249 l 1
 156.60000062 63.1999992132 295.000000358 -17.3000000119 471.69999963 -17.3000000119 c 0
EndSplineSet
EndChar

StartChar: section
Encoding: 167 167 94
Width: 927
VWidth: 0
Flags: HW
LayerCount: 2
UndoRedoHistory
Layer: 1
Undoes
EndUndoes
Redoes
EndRedoes
EndUndoRedoHistory
Fore
SplineSet
581 511 m 1
 641 543 703 575 703 708 c 0
 703 801.584 613.451 839.986 486 889.717 c 1
 362 936.757 l 1
 300.605 915.492 234 842.784 234 745 c 0
 234 638 321.343 614.863 471 555 c 2
 581 511 l 1
792 253 m 0
 792 63.5868 621.625 -17.31 432.689 -17.31 c 0
 333.975 -17.31 230.195 4.77307 143 45 c 1
 174 126 l 1
 248.49 87.4407 346.847 63.3408 438.148 63.3408 c 0
 575.568 63.3408 697 117.937 697 260 c 0
 697 364 629.289 405.595 444 470 c 0
 255.713 535.447 137 590 137 740 c 0
 137 848 202 921 291 967 c 1
 195 1021 147 1083 147 1191 c 0
 147 1366.76 313.479 1444.03 496.857 1444.03 c 0
 587.459 1444.03 682.187 1425.16 763 1390 c 1
 734 1313 l 1
 669.382 1344.03 581.846 1362.57 498.749 1362.57 c 0
 366.777 1362.57 246 1315.8 246 1198 c 0
 246 1064 346.22 1035.56 521 966 c 0
 717 888 800 845 800 697 c 0
 800 589 761 518 656 474 c 1
 741 426 792 355 792 253 c 0
EndSplineSet
EndChar

StartChar: semicolon
Encoding: 59 59 95
Width: 579
VWidth: 0
Flags: HW
LayerCount: 2
UndoRedoHistory
Layer: 1
Undoes
EndUndoes
Redoes
EndRedoes
EndUndoRedoHistory
Fore
SplineSet
195.299999535 789.800000906 m 1
 414.299998105 789.800000906 l 1
 414.299998105 1022.60000002 l 1
 195.299999535 1022.60000002 l 1
 195.299999535 789.800000906 l 1
170.299999177 -284.599999905 m 1
 299.199998021 -284.599999905 l 1
 414.299998105 213.799998641 l 1
 220.899999201 213.799998641 l 1
 170.299999177 -284.599999905 l 1
EndSplineSet
EndChar

StartChar: seven
Encoding: 55 55 96
Width: 1075
VWidth: 0
Flags: HW
LayerCount: 2
UndoRedoHistory
Layer: 1
Undoes
EndUndoes
Redoes
EndRedoes
EndUndoRedoHistory
Fore
SplineSet
274.600001335 0.300000011921 m 1
 502.899999201 0.300000011921 l 1
 953.200000167 1201.40000117 l 1
 953.200000167 1341.40000021 l 1
 134.800000906 1341.40000021 l 1
 134.200001359 1172.2000016 l 1
 718.800002337 1172.2000016 l 1
 274.600001335 0.300000011921 l 1
EndSplineSet
EndChar

StartChar: six
Encoding: 54 54 97
Width: 1237
VWidth: 0
Flags: HW
LayerCount: 2
UndoRedoHistory
Layer: 1
Undoes
EndUndoes
Redoes
EndRedoes
EndUndoRedoHistory
Fore
SplineSet
606.599999547 147.599998713 m 0
 440.29999882 147.599998713 355.49999851 257.89999944 355.49999851 404.69999975 c 0
 355.49999851 580.500001132 464.100000322 665.60000062 611.099999607 665.60000062 c 0
 782 665.60000062 867.200000525 561.500000179 867.200000525 408.199999809 c 0
 867.200000525 260.499999464 775.100000203 147.599998713 606.599999547 147.599998713 c 0
614.199999452 -18 m 0
 888.599999309 -18 1083.19999862 159.700000226 1083.19999862 410.999999762 c 0
 1083.19999862 658.299999654 889.899998605 824.799999475 650.099999249 824.799999475 c 0
 604.401686324 824.799999475 563.160972633 814.029149062 527.585281147 798.972943341 c 1
 563.886663234 847.597242 599.524340771 895.880121196 614.099997461 917.299999297 c 2
 924.699997723 1341.40000021 l 1
 672.899999917 1341.40000021 l 1
 334.100000799 876.40000093 l 2
 225.30000037 725.600000143 141.900000393 601.600000143 141.900000393 415.399999738 c 0
 141.900000393 167.400000453 327.299999535 -18 614.199999452 -18 c 0
EndSplineSet
EndChar

StartChar: slash
Encoding: 47 47 98
Width: 896
VWidth: 0
Flags: HW
LayerCount: 2
UndoRedoHistory
Layer: 1
Undoes
EndUndoes
Redoes
EndRedoes
EndUndoRedoHistory
Fore
SplineSet
69.2000005245 -182.300000608 m 1
 237.899998844 -182.300000608 l 1
 826.000000119 1348.9999994 l 1
 654.600001812 1348.9999994 l 1
 69.2000005245 -182.300000608 l 1
EndSplineSet
EndChar

StartChar: sterling
Encoding: 163 163 100
Width: 1040
VWidth: 0
Flags: HW
LayerCount: 2
UndoRedoHistory
Layer: 1
Undoes
EndUndoes
Redoes
EndRedoes
EndUndoRedoHistory
Fore
SplineSet
90.5000007749 9.39999961853 m 1
 80.900000751 167.199998379 l 1
 243.200001001 185.799998283 l 1
 243.200001001 612.500000298 l 1
 75.5000008941 612.500000298 l 1
 75.5000008941 763.699999154 l 1
 243.200001001 763.699999154 l 1
 243.200001001 853.099999368 l 2
 243.200001001 1134.39999926 329 1364.60000014 639.200000644 1364.60000014 c 0
 777.10000056 1364.60000014 889.000000358 1314.60000014 975.200000167 1241.5000003 c 1
 888.600000858 1104.40000141 l 1
 810.100000799 1161.30000156 735.300000608 1194.90000159 644.700000465 1194.90000159 c 0
 491.699999392 1194.90000159 438.699999273 1089.40000057 438.699999273 918.999999404 c 2
 438.699999273 763.699999154 l 1
 797.299999893 763.699999154 l 1
 797.299999893 612.900000274 l 1
 438.699999273 612.900000274 l 1
 438.699999273 187.099998295 l 1
 991.100000083 187.099998295 l 1
 982.399999976 9.39999961853 l 1
 90.5000007749 9.39999961853 l 1
EndSplineSet
EndChar

StartChar: t
Encoding: 116 116 101
Width: 806
VWidth: 0
Flags: HW
HStem: -10 78
VStem: 228 114 267 75
LayerCount: 2
UndoRedoHistory
Layer: 1
Undoes
EndUndoes
Redoes
EndRedoes
EndUndoRedoHistory
Fore
SplineSet
545.499998987 -12.0999999642 m 0
 647.399998903 -12.0999999642 732.99999845 13.3999998569 738.599998355 15.4999998212 c 1
 738.599998355 157.099998653 l 1
 735.099998415 154.999998689 649.399998665 140.79999876 588.299998581 140.79999876 c 0
 489.599998593 140.79999876 426.699998558 187.199998617 426.699998558 349.699998558 c 2
 426.699998558 872.100000799 l 1
 710.099998891 872.100000799 l 1
 710.099998891 1006.99999964 l 1
 426.699998558 1006.99999964 l 1
 426.699998558 1259.59999967 l 1
 276.799999833 1258.09999961 l 1
 223.801353623 1006.46485487 l 1
 69.0000003576 995.899999678 l 1
 59.2000005245 872.800000787 l 1
 213.30000025 872.800000787 l 1
 213.30000025 352.699998438 l 2
 214.000000238 108.599999309 313.600000381 -12.0999999642 545.499998987 -12.0999999642 c 0
EndSplineSet
EndChar

StartChar: three
Encoding: 51 51 102
Width: 1167
VWidth: 0
Flags: HW
LayerCount: 2
UndoRedoHistory
Layer: 1
Undoes
EndUndoes
Redoes
EndRedoes
EndUndoRedoHistory
Fore
SplineSet
533.999999642 -18 m 0
 800.50000006 -18 1000.69999951 119.900000155 1000.69999951 366.699999988 c 0
 1000.69999951 539.700000703 903.499998868 673.500000417 746.699998438 713.600000262 c 1
 885.799998999 760.900000036 964.999999523 854.299999893 964.999999523 1010.20000064 c 0
 964.999999523 1225.50000066 778.999999285 1361.50000018 538.599999547 1361.50000018 c 0
 384.399999976 1361.50000018 260.299999774 1325.20000017 155.299999654 1260.4000001 c 1
 218.799999237 1105.50000137 l 1
 299.399999499 1157.40000153 407.69999975 1191.70000154 521.69999975 1191.70000154 c 0
 668.600000143 1191.70000154 761.600001216 1108.80000174 761.600001216 993.300000727 c 0
 761.600001216 819.799999714 603.800000072 794.599999785 414.699999988 791.499999702 c 1
 362.500000298 791.499999702 l 1
 362.500000298 623.300000966 l 1
 414.099999964 623.300000966 l 1
 635.000000358 618.300000966 788.900001347 578.700000823 788.900001347 373.899999797 c 0
 788.900001347 234.899998724 690.500000656 152.499998629 534.999999642 152.499998629 c 0
 412.499999464 152.499998629 284.599999309 199.299998939 226.399999499 244.999998689 c 1
 160.199999928 92.1999999285 l 1
 222.999999166 39.300000608 375.099999368 -18 533.999999642 -18 c 0
EndSplineSet
EndChar

StartChar: two
Encoding: 50 50 103
Width: 1134
VWidth: 0
Flags: HW
LayerCount: 2
UndoRedoHistory
Layer: 1
Undoes
EndUndoes
Redoes
EndRedoes
EndUndoRedoHistory
Fore
SplineSet
158.899999678 0 m 1
 950.599999905 0 l 1
 963.999999762 166.399998665 l 1
 392.356236575 166.399998665 l 1
 720.599999666 508.400000811 l 2
 892.799999833 689.200000763 965.999999523 812.999999881 965.999999523 986.100000441 c 0
 965.999999523 1245.80000091 746.899998367 1361.50000018 532.299999654 1361.50000018 c 0
 373.799999833 1361.50000018 236.999999642 1301.10000032 159.099999607 1238.90000051 c 1
 222.09999913 1084.40000176 l 1
 278.299999893 1122.40000212 401.699999869 1191.00000155 523.199999809 1191.00000155 c 0
 636.199999928 1191.00000155 752.300001323 1120.80000198 752.300001323 973.30000037 c 0
 752.300001323 858.899999201 687.400001168 759.499999821 591.500000536 657.199999332 c 2
 145.39999938 178.199998856 l 1
 158.899999678 0 l 1
EndSplineSet
EndChar

StartChar: underscore
Encoding: 95 95 105
Width: 1010
VWidth: 0
Flags: HW
LayerCount: 2
UndoRedoHistory
Layer: 1
Undoes
EndUndoes
Redoes
EndRedoes
EndUndoRedoHistory
Fore
SplineSet
61.9000005126 -206.500001252 m 1
 944.999999285 -206.500001252 l 1
 944.999999285 -57.9000023007 l 1
 61.9000005126 -57.9000023007 l 1
 61.9000005126 -206.500001252 l 1
EndSplineSet
EndChar

StartChar: uni00AD
Encoding: 173 173 108
Width: 761
VWidth: 0
Flags: HW
LayerCount: 2
UndoRedoHistory
Layer: 1
Undoes
EndUndoes
Redoes
EndRedoes
EndUndoRedoHistory
Fore
SplineSet
80.5000007749 282.399997354 m 1
 691.700003326 282.399997354 l 1
 691.700003326 451.399996042 l 1
 80.5000007749 451.399996042 l 1
 80.5000007749 282.399997354 l 1
EndSplineSet
EndChar

StartChar: uni00B2
Encoding: 178 178 109
Width: 683
VWidth: 0
Flags: HW
LayerCount: 2
UndoRedoHistory
Layer: 1
Undoes
EndUndoes
Redoes
EndRedoes
EndUndoRedoHistory
Fore
SplineSet
581 607 m 1
 100 607 l 1
 100 691 l 1
 324 916 487 1058 487 1172 c 0
 487 1271 423 1314 351 1314 c 0
 274 1314 200 1280 140 1200 c 1
 74 1255 l 1
 122 1345 234 1406 340 1406 c 0
 485 1406 592 1329 592 1180 c 0
 592 1003 432 878 234 697 c 1
 581 697 l 1
 581 607 l 1
EndSplineSet
EndChar

StartChar: v
Encoding: 118 118 111
Width: 1048
VWidth: 0
Flags: HW
LayerCount: 2
UndoRedoHistory
Layer: 1
Undoes
EndUndoes
Redoes
EndRedoes
EndUndoRedoHistory
Fore
SplineSet
428.100000203 0 m 1
 636.599998713 0 l 1
 1011.89999872 1006.99999964 l 1
 790.400000572 1006.99999964 l 1
 603.900000155 452.399999261 l 1
 534.294897565 225.813176953 l 1
 457.29999882 452.199999213 l 1
 260.399998546 1006.99999964 l 1
 36.8000004292 1006.99999964 l 1
 428.100000203 0 l 1
EndSplineSet
EndChar

StartChar: w
Encoding: 119 119 112
Width: 1521
VWidth: 0
Flags: HW
LayerCount: 2
UndoRedoHistory
Layer: 1
Undoes
EndUndoes
Redoes
EndRedoes
EndUndoRedoHistory
Fore
SplineSet
323.600000262 0 m 1
 527.399998665 0 l 1
 761.769230206 797.169232751 l 1
 995.400000691 0 l 1
 1195.49999887 0 l 1
 1483.79999828 1006.99999964 l 1
 1281.60000002 1006.99999964 l 1
 1090.71805318 249.164698313 l 1
 872.199998617 1006.99999964 l 1
 655.400000095 1006.99999964 l 1
 435.28804424 242.99491911 l 1
 243.499998748 1006.99999964 l 1
 38.0000004768 1006.99999964 l 1
 323.600000262 0 l 1
EndSplineSet
EndChar

StartChar: x
Encoding: 120 120 113
Width: 1058
VWidth: 0
Flags: HW
HStem: 0 21<37 275 275 275 775.7 1016.6 1016.6 1016.6> 966 20
LayerCount: 2
UndoRedoHistory
Layer: 1
Undoes
EndUndoes
Redoes
EndRedoes
EndUndoRedoHistory
Fore
SplineSet
775.700000465 0 m 1
 1016.59999847 0 l 1
 656.032319684 503.594524757 l 1
 1007.09999865 1006.99999964 l 1
 769.10000056 1006.99999964 l 1
 537.34882151 669.356359153 l 1
 295.599998355 1006.99999964 l 1
 56.2000002861 1006.99999964 l 1
 402.860565749 521.819750565 l 1
 37.0000001192 0 l 1
 274.999998212 0 l 1
 522.115881117 354.912033397 l 1
 775.700000465 0 l 1
EndSplineSet
EndChar

StartChar: y
Encoding: 121 121 114
Width: 1040
VWidth: 0
Flags: HW
LayerCount: 2
UndoRedoHistory
Layer: 1
Undoes
EndUndoes
Redoes
EndRedoes
EndUndoRedoHistory
Fore
SplineSet
492.199998856 -375.399999976 m 1
 1007.49999911 1006.99999964 l 1
 789.200001001 1006.99999964 l 1
 545.796324414 268.141978334 l 1
 273.599998593 1006.99999964 l 1
 53.6000003815 1006.99999964 l 1
 444.364978327 24.9816597091 l 1
 299.800000548 -349.500000179 l 1
 492.199998856 -375.399999976 l 1
EndSplineSet
EndChar

StartChar: yen
Encoding: 165 165 115
Width: 1118
VWidth: 0
Flags: HW
LayerCount: 2
UndoRedoHistory
Layer: 1
Undoes
EndUndoes
Redoes
EndRedoes
EndUndoRedoHistory
Fore
SplineSet
449.300001442 0 m 1
 660.599999785 0 l 1
 660.599999785 267.500000417 l 1
 965.099999607 267.500000417 l 1
 965.099999607 403.699999273 l 1
 660.599999785 403.699999273 l 1
 660.599999785 539.000000477 l 1
 964.499999583 539.000000477 l 1
 964.499999583 670.099999487 l 1
 722.520899385 670.099999487 l 1
 1108.49999958 1341.40000021 l 1
 886.300001562 1341.40000021 l 1
 553.050300638 741.828398324 l 1
 208.299999297 1341.40000021 l 1
 -17.0999986529 1341.40000021 l 1
 383.169701835 670.099999487 l 1
 144.000001431 670.099999487 l 1
 144.000001431 539.000000477 l 1
 449.300001442 539.000000477 l 1
 449.300001442 403.699999273 l 1
 143.400001407 403.699999273 l 1
 143.400001407 267.500000417 l 1
 449.300001442 267.500000417 l 1
 449.300001442 0 l 1
EndSplineSet
EndChar

StartChar: z
Encoding: 122 122 116
Width: 931
VWidth: 0
Flags: HW
LayerCount: 2
UndoRedoHistory
Layer: 1
Undoes
EndUndoes
Redoes
EndRedoes
EndUndoRedoHistory
Fore
SplineSet
107.000000119 0 m 1
 837.399998546 0 l 1
 837.399998546 157.799998641 l 1
 356.238976323 157.799998641 l 1
 824.699998677 860.400000811 l 1
 824.699998677 1006.99999964 l 1
 128.400000095 1006.99999964 l 1
 128.400000095 854.800000906 l 1
 592.329078206 854.800000906 l 1
 107.000000119 133.699999034 l 1
 107.000000119 0 l 1
EndSplineSet
EndChar

StartChar: zero
Encoding: 48 48 117
Width: 1223
VWidth: 0
Flags: HW
LayerCount: 2
UndoRedoHistory
Layer: 1
Undoes
EndUndoes
Redoes
EndRedoes
EndUndoRedoHistory
Fore
SplineSet
613.199999452 -21.900000155 m 0
 962.399998665 -21.900000155 1091.49999875 292.09999913 1091.49999875 667.900000036 c 0
 1091.49999875 1055.90000123 953.99999845 1360.30000013 613.199999452 1360.30000013 c 0
 273.500000417 1360.30000013 132 1057.40000117 132 667.900000036 c 0
 132 292.09999913 264.700000226 -21.900000155 613.199999452 -21.900000155 c 0
613.199999452 149.799998522 m 0
 426.099999368 149.799998522 347.299998224 365.799997568 347.299998224 675.799999952 c 0
 348.099998176 974.800002098 427.199999332 1189.00000143 613.199999452 1189.00000143 c 0
 800.299999535 1189.00000143 875.10000056 985.100002587 875.10000056 674.300000012 c 0
 875.10000056 364.699997604 800.299999535 149.799998522 613.199999452 149.799998522 c 0
EndSplineSet
EndChar
